<mxfile host="65bd71144e">
    <diagram id="Kq52iHwlpqT3mWbodLQQ" name="페이지-1">
        <mxGraphModel dx="614" dy="475" grid="1" gridSize="10" guides="1" tooltips="1" connect="1" arrows="1" fold="1" page="1" pageScale="1" pageWidth="827" pageHeight="1169" math="0" shadow="0">
            <root>
                <mxCell id="0"/>
                <mxCell id="1" parent="0"/>
                <mxCell id="2" value="" style="shape=image;verticalLabelPosition=bottom;labelBackgroundColor=#ffffff;verticalAlign=top;aspect=fixed;imageAspect=0;image=data:image/png,iVBORw0KGgoAAAANSUhEUgAAAmsAAACSCAYAAAAaTo0cAAAgAElEQVR4Ae2deVcTWdf2+/OcrqpUPYyymIfFjIRRSBYyKnNkUhS9HVA0jq2gKCqRKIhP0yqKdLd6C61g99s+3+l616lKpSohSYVBjbD/yMpwqs6w9++cus6Yn6qrq/Hzzz/Ti2xADBADxAAxQAwQA8RADDLwE4k1Eqok1okBYoAYIAaIAWIgdhkgsRaDCpoqTOxWGPIN+YYYIAaIAWLgWzNAYo3EGg15EwPEADFADBADxEAMM0BiLYad862VO6VHvUVigBggBogBYiD2GCCxRmKNelPEADFADBADxAAxEMMMkFiLYedQ7yb2ejfkE/IJMUAMEAPEwLdmgMQaiTXqTREDxAAxQAwQA8RADDPw3cUaYwyV5TKeOkRkMkawxDAs37onQelR75UYIAaIAWKAGPgZMSDWBDQ7FKx0SCgmsUZilcQqMUAMEAPEADFADAQwoIo1fjCu+UUqlnoyxAAxQAwQA8QAMUAMxAYDPwU7wvyPBkwRcK5Vxsqggn8HZbxqklBp06YqGRNwskOBxy5hokvB+qCMBaeEfMGYyqyulbHqlHC8RcbaoIzlVgnOuMDw/xv+H/DXly4JeaaRNSN+EZOdMtYHZCw4ROSa4mc2ASeaZKwOKFhuljBYJ2O1TgxQoyzOgeNzH+C53Yd0U/zB5abvsQEk+YH8QAwQA8QAMUAMBDIQUaztr5bxd7uEumQBeSkizh9S8KJCUMWQLqZW2yX0pAkoyZQw06dgrkQL54bmYu1znw3ufAHFKSIutCtYbRAR5xNNNllAVoKA/DJbWLG2osefJWGuX8FMkZ4+Q1mVjH97bOhKE1CeJ2HWpWwUa0ntGFtcx9zj08glsRYgZKkyBFYGsgfZgxggBogBYiAWGYgo1pwOBZ+cImwhRI4u1uZLDXFmr5bxucEY2eJi7d8m434x14a/XRLsQfHJBeHFmjl+R72MlTpdrAkYbjfEId+o0N64Uaxxo0uJ6UhUjHzGoiMoT9RAEAPEADFADBADxEAoBgLWrPELzNOg8ZkSlocUvOuw4W6dhIEswT8qpou16QJjWjOvXMaXJhGST4xxsbbmMMQbU0S05wtI24RYM8dfUatg3anFx9O/0KNgMtdIX512DZoGDVVo+o0qAzFADBADxAAxQAz8KAxEHFnjhYiLF9BWIsHtkPF2SMGzMmNki69ZM4spK7EWziiRRtbM8QeLtbFeEmvhbEq/UyNEDBADxAAxQAzsDgYCxFpcXJw6siYImiDj76JpFKzALuNLi4h4xqCPrJmnKfk0qD7yxQEJHlkLB81WxRoXi94ibWSNT4M2N4SeBhVs8ZAlYwQuXD7o990BNfmR/EgMEAPEADGwmxjwizVJklBeXg673e7bQKCtAXvfJOFAioDcZAGn2hSs1osQTGJN3wBQzDcYHDHWkHEjRRJrXFwlx5s2GHTbUJugfU8SDTEYfmSN4cABbQOEXWaI3yfhoSvEbtDEVow+X8Os5wRyTMJzNzmRykKNEjFADBADxAAxsHsZ8Iu1oqIiZGdnB+wWFBNEXD0k4+OQdnTHm1YbGuL1kSzt6I5pu4jxTu3ojt+cEgpMR2tEFmsCLrsU9dgO/fgO9QiPYzLcadZijUPJ4kWMdyv4ckzB514b3A0hxFqcEyNPV+CZ7EcGibUA/1LF3r0Vm3xLviUGiAFiYPcwoIo1LtK4WNuMY/Vp0IemDQabuX+nruUjdPviBcSLDLV1Cj74dovuVPwUz+6BnXxJviQGiAFigBj4ERn4KScnR53+5NOgmymALtbM05SbuX8nrlWnUn1Tp9lJAi51KnhqOudtJ9KgOKhiEwPEADFADBADxMD3ZEA9uoNvLNhsJmJDrAm41qdNpf47pP3DQiltJNi0Lzfre7qeGi1igBggBogBYuDbMfDd/8idnP3tnE22JlsTA8QAMUAMEAM/HgMk1n7+8ZxGFY18RgwQA8QAMUAM7B0GSKyRWKNpU2KAGCAGiAFigBiIYQZIrMWwc6jXtHd6TeRr8jUxQAwQA8RAOAZIrJFYo94UMUAMEAPEADFADMQwAyTWYtg54RQ2/U69L2KAGCAGiAFiYO8wQGKNxBr1pogBYoAYIAaIAWIghhkgsRbDzqFe097pNZGvydfEADFADBAD4RggsUZijXpTxAAxQAwQA8QAMRDDDHxTsRbpj93DqUmWKWGtz4Zq+hN2qkgxXJHC8Uu/U0+ZGCAGiAFiYLsMqGKturoa5td2Iw13P4k1AjYcG/Q7sUEMEAPEADFADIRm4Kdgw3DRFvzbVr8zRcRYq4yPgwretIgYqpOx5hD98TObgOEGG94NKFjvk+GtFZHpG0Fj2TasH9P+9/P/hv8H+uvLYQmp+jUR7ud5ZoqAc60yVgYV/Duo/XdopY0Z6UsC+h0y3vbLWHPJeFghGHEzAWe7FTwoEPzXV9QqWHca+efic9Up4XiLjLVBGcutEpxxgfH31tvwe5+MNV/5soTA8H6HDe8GFXzukzFTJSAtaASRxTlwfO4DPLf7kB4UtlW/0H2hKwPZhexCDBADxAAxEIsMfDWxxhhDg0PB350SWlMFlOZIeORS/GJNC5ex0iKhOU1AUbqIyV4Zjwo1ccQkhvwkAQVFNnUatIN/5q94BpExWN3Pjb2/Wsbf7RLqkgXkpYg4f0jBiwpf/ExAZY2Mz502tKUKKMkS4e0zxBn/o/poxNrnPhvc+QKKU0RcaFew2iAizpe/ihpZLX87L1+GiLu9CuZL9fQZqmoV/HVIwsEUAcVquIyZIkPM8TKwpHaMLa5j7vFp5JJY8wvnWKxMlCdq5IkBYoAYIAa+BgNfUawJOKeOTGnig4urJmfgyFpwgar4SFWdMXLFwzezZi34fqdDwSenCFsIkcPF2OkuLs4McWSv4fnTxVR0Yu3fJiN+MdeGv10S7KpYE3C6U8HDfCP+jFwJE6WiT2wKGO2RMZ5lhBfYZfzTEFh+bgMpMR2JipavYJvRd2oYiAFigBggBoiB3c1AwJo17uydmgblYuiyS8atbEOMBK9ZS82UMNPFpxAV/DOk4J+jgdOMPD+RxJrV/fGZEpaHFLzrsOFunYSBLEEd9VLjDZG/vHIZX5pESD6xFc3IWsC0riKiPV+bygxVfnNl0sIV/HvUV3Ze/iHFn775Wvq8uysh+Zf8SwwQA8QAMRCJga86shZJrDFRxHi/glm7iNJkbYqz3SEHrAnjGQ8n1qK9Py5eQFuJBDdfmzak4FmZMXIWnL/tijWzoaMVa5OFvuld0zSvOR76TBWYGCAGiAFigBjY2wwEiLW4uDh1ZE0Qtj/lxsXKaI8xzRg8DcriJSwcs6HXt+CfhzvrQ4u1TyGO7ojmfl4Ovr5Nh5xPM35pERGvT1NGnAZlGDqkYK5Uu5/n76BDwdtawzbBI4V6Ovydl59Ps5qnQbMKbHiwX8uTZh8Z9/KM/MXFCSiJN77r8Qm2eMjSxt/1cHrf25WY/E/+JwaIAWJgdzPgF2uSJKG8vBx2u90vbrbjfC5ugjcYeM0bDAQREwMyfq3WRtZqCm3wukKItWQJS0dljGVqI1D5cb6RMYv7efrtjQreN0k4kCIgN1nAqTYFq/UiBN8GAH2DAd8AoW8wuJ9viLEivoasx4aONG2DxK+DCm6a1phFFmsMFbUy/umUwDcY8A0EUy4FT0sM8cc3GKx3SuoGh8I0ERM9fANCoChjia0Yfb6GWc8J5JiE53Z8Q/fu7kpN/iX/EgPEADGwuxjwi7WioiJkZ2fviFDTITEf3fFHq4RhR+AGg4xsCbM9MtZ9x2r01oQQa0xAS52MD4PaMR7mozOs7hcTRFw9JOPjkHZ0x5tWGxpMI1eMH93h9B3dcUTGtOnoDl4GJgrorrfhT9/RHnfLBCSZBFMksabebxPgcsj4o08JfXSHTcCAU8Z7/eiSGhGZpqM91DjinBh5ugLPZD8yTGnrNqb33VUhyZ/kT2KAGCAGiIFgBlSxxkUaF2vBgfSdgCEGiAFigBggBogBYuD7MvBTTk6OOv3Jp0HJGd/XGWR/sj8xQAwQA8QAMUAMBDOgHt3BNxYEB9B3goUYIAaIAWKAGCAGiIHvz8A3/SN3cvj3dzj5gHxADBADxAAxQAz8WAyQWPv5x3IYVTDyFzFADBADxAAxsLcYILFGYo2mwIkBYoAYIAaIAWIghhnYcbGWlJREDo9hh1NvbG/1xsjf5G9igBggBn58BkiskbAicU0MEAPEADFADBADMcwAibUYdg71hn783hD5kHxIDBADxAAxsF0GSKyRWKPeFDFADBADxAAxQAzEMAMk1mLYOdtV4nQ/9eaIAWKAGCAGiIEfn4FdL9b4H7pXlst46hCRSf+tST2nPSbOGROR1nwBbf11iI9R/n+EPG71Ybeby7ZVm9B9P75wIB9+ex/+UGLN6o/TQwHEmIBmh4KVDgnFMfqwCpXvBof2x/X/N/w/+HLMhk6RkdDaY0IrFBeb/Y0xBTlHJuE634F92+Q/vfsu+vrsKoeMpaL8whM0Vtu2zWW0efxa6YeyqV6+o1OzGLrrRd+1q6h35sO2SRtGW7ZQeaDfvv0DkWxONo9VBna9WItVw1vlS1EYshIEZGVIWCKxtm1BYGVvCrdupL+lWArlj2+Zvi7WWg5mICE1E2lV/Wi/cx/1pTKxSJ0mYoAY+OYMxLRYY4qIsVYZHwcVvGkRMVQnY80h+o3ER9pWnRKOt8hYG5Sx3CrBGWeMQPFwPjKljk51Scgz9YpZooSXx2QMxhvXixkSVvpsOCBovzFJQL/DhneDCj73yZipEpBmisMq/VAPHPNvPP7eeht+75Ox1ifDWysiy5e2fh1LkrAYRqwxm4DhBhveDShY991vnuplioBzrTJWBhX8OyjjVZOESptRXqtwPQ+h3vmI5ckOBR67iMlOGesDMhYcInJN+Y+UP7VcLhvcDTLWem04lC/hzwEFT8oECD4bW9mf54vFOXB87gM8t/uQbvJNqDwH/8bkHJT0X0HPLQ/6bvyCg21lUExxcHHgGjiMspN30H/7AbpPuZCVaLZfPvYP34JrYhpdI20ocd2Fy1Xm5zM4PfN3ltaOjusjqB68i74rx5BXOYieiSm0HMwCn7rn17K4QpQNXUXvxAz6b06guasS8Sb7WuWPh/ORIXV06GIHEk1liyZ+lliGqlO3ceS2Vr5S1+TGkbXWetSP3Uf/xD0c6qtDYpQjwIxlosL9xJ8/nsfBozUBtttu+kzORuERN7q5f2+Oo7mrCvFR5y9w5JDznnXkAY649vvzuB37s9TD6Lh7GSVJBk9C4SBcN48hQ29/5BwU919B720v+m+Oo+lwOeI24X8zb/TZujNCNiIbxTIDMSvW+AOLTwX+3SmhNVVAaY6ERy5lg1j73GeDO19AcYqIC+0KVhtExPkeSjZZUEen8sts+BIs1piAc90KvEWCv/G118hYc4qQGFMfmFW1Cv46JOFgioDiDBF3e2XMFBmNKxdrkdKP5HhevooaWS1fe5qAIjV+BfOlRn74/eHEmmYfGSstEpr5/ekiJntlPCo07t9fLePvdgl1yQLyUkScP6TgRUX04ZHzr4m1lXYJPWkCSrIkzPUrmPHZ0yp/armGZJxKF3CuXcHSARH7S21Yd0koi9L+mn3aMba4jrnHp5EbJEYi519EWtcd9I8NIDc3C/tKDqH55jQOViX4eeAP4/6bblRX5iM5uwKVox64Bqt8fAhIaZ/AoPsECvJykFpxBC3Xpzcn1ibdKM8vRMXoDDp7q5DiPIf+q0eQopZfRFb/A7hOdiInLwfJ+Q44r3jQVJsYVf542cX4FCTsS0XiwTEMBYk1vpYqUvyMScjuu48Bbp+cLOzb34Oma9MbxJprtA+F+dk++3nRUp/sz5+V/W1JqWr+eB6zeu8EiLXtpq+uFeu6jYGLR5Gfl4XkggY4r8yg1ZkaZf4CxRovy77DEwF5jMSHtf2zUOH2oumAwVtq5x309VdA9Pk/rXsSR850Iys7E8mFDWi44kHzAePQcav0I9mfwkiYEAM/FgMxLNY0MfWgwDfKwBianBtH1v5tEv3rSMRcG/52SbAHPbTlgo1ijYNqr5bxT5Mm7njP+Wy3grt5enoCRntkjGcZ4qzALuOfhsCRvWjSD1UpeHqnOxU8zDfiz8iVMFEqqo21fk84saaHm9+r+EhjnZE/p0PBJ6dhH/O1/LNVePD15u/6yJpZXDrqZazUGWLQfD3/bM6fWq4BG+oZAxe9XOTpv9WpDytr++vxS4npSFTCp6tfZ37nIzv2i4/RWC35H97aw7Lc/50/DAeP1/n9IZSPYOD6EaSq+duHstEnaHVo4omLi/xh7+bE2sSwuumFp9NUq0AdbRvXfjPnVf/MH97mkbtI+dPv4e9i9dkNYs0crn82x88YFxOGfbi/swc8G8Raq9MQZ9x+/QOVfvvp8UbzHiyEtps+Yxmaf6uMNXXxdhfqnYX+kdtI+dKnQc1r8oLzuF37c3sNHD/gE/98pHEGDRVafnn5K90e1Jca7UNS6y8YHKz22zfa9COVk8J+rAc2+Wvv+iumxdpll4xb2UZjxR/qwdOg5u982rQ9P3CqksMdTqwJGRI+DNjQJDCwBAkLR23o9E0T8ofTZZeCf48q+GfIeH1p0kbeeLzB+QlOn6VIWDLd+8+gDU0+IanFH1i+UBUxklhLzZQw08WngH35O6pg3WmItfhMCctDCt512HC3TsJAluAfdeRpWYVb5Z9Pg077xDSPr6I2MP1I+dOFWSixxn+Lxv6h7BXtb4wVoOZ64MMwsfk6hkzijD8M9QX1PF6WUIC8qkLVhozloPKyF067wSe/3iymIuVFFWahxJrvN35vXHEPmi7dQ98dLwYmvRicfIL+/oqAh3W4/JnTDifWIsUfyj5me4QSM8H2M+fB6nOwENpu+qHut8qDOTxU+YLzaLYHv9fMhzmucPZnBQNwTZxCtsjA9rXh8OQo8hWNJy3/TzA4qfle8//jqPk0p0+f9+4Dnny/e3y/q8RaODDDiTUmiLjVJ+NGJkNKiQ3/r01CcoCYUjBZKKAgyfQyrXELFmvB6TNRQI753iTBf3zCdsUaE0WM9yuYtYsoTdby1+6QA8Qaz09cvIC2Egluh4y3QwqelQWOQEUKt8p/JLFmlb9oxVok+wfbezPfQz3Mg8VG8MPYHD8Xa1VXvp5YY+J+1N+aRkvrfuxLz0RSeiby+u5FFGvm/Jk/hxILVvGHso/ZHqHETLD9zHmw+hwshLabfqj7rfJgDg9VPp7HgaHAkS2zWDbfb/4cyv48nIllqL/1AAeKRSj1FzH4n0bI/vaHdyam4azRfM/9r76SlbBi3Zwmfd49D2nyJfmSMxDTYm20R4HVNKh5ZC0c1GHFGmNoaVDwrkZEZ1PgejEupvg06D3ftCiPOy5OQMkmxFq4/PDfefynuwKnQbMKbHiwX/BPu6nXqRshNh7dweIlLByzodc/EsjgrA8Ua4IQGBefxv3SIvoFo1W4Vf4jijWL/EUj1qzsr+dPsMVDlowRLv33SO/RToOGexjrD/PmWu3hyf2ZM/go5MhaqGlaq5E1lnwIh++NodA/0qItcI80shauvKHEglX82jTczkyDhip/cF43ijU+Dbj19P3+NU+DVg3gYGPRhmnQUPnT/atPg3L/8g0G5pFTs3gNLo/5eyj783C+ri530IPerjJ1Cr2tYZ9fiGn296Khwpiml5IysS85zn9NtOmb80Kf6cFPDPyYDMSwWNu4wcAbYoNBOLHGF7gnx5s2GHTbUMuPwkgQkGTaERaXb8PfXTY8HZBxwrzTjzHwDQbrnRLaUgUUpomY6OGCzhAFViNrkSqFusGgVsY/nRL4BgO+gWHKpeBpiRE/v59JIjxHtRG+bF/+E/i0rSBiYkDGr9XayFpNoQ1elyHWePztjQreN0k4kCIgN1nAqTYFq/Wi+rCyCo+UdzVfvt2g4aZBLfPHd7mGWbOmTYNa21/NR2IrRp+vYdZzAjm+UQmrvGv5D7PBoNJY8B3pYcgftBm99zAw2o3UOAlSZgsar3sCHuZqOkkduBhiA4SlWBPtqB/34FBHJfalZyOjZgDN1x5EPbLG19DJydoCfnWDgbsPGfv49xRV2DKL+Dcu8O9F87WNa9Zc5wdQmK9v0Ni4wYCFKX+wjzaKteANDptLn/sn1bzBoPAgGq7NoM2R4hc7Ef3jO0fOf3RH5cajOyLzEdn+evmlytMYuOhG6/gN7E816r66QaJ70rcBJhPJ+XWov8w3SBj5j5S+Hj+9/5gPZvIb+S2YgZgVazyj5qM7/miVMOyIvGbNXDjeE+ZrzvSjO/T3L8dkuNNMjaJNhPeogi/dEgqDHvb86IkBp4z3+tEYNSIyTVvntyPW1PLZBLgcMv7oU8If3cEYSkpseN2n4Msx/pLxH992/4xsCbM9MtZ9x3L01hhijccvJoi4ekjGxyHt6I43rTY0mEYGrcLN9gz+zO0baWSNXx8pf1Yja/x+K/ur18Q5MfJ0BZ7JfmQE+S84z8Hf/Ud3jHvQf+MmGkMc3RFuZE1NO7kK9e4ZDN19jP4rx1E9dG+jWItvwMj8xvxZiTUef3ypCy2XH6D/zn10Hm9FYdfEJsQan0YLPBpDPcLj3l1U+0aLreL3H51xx4OeUx0oO2Ks4dNHnpraGuC8eB/9t+/hcJ8joCOk2ihM+YN9ETzFqN6rHx2yxfSZkoOiPjd6bj1Cn3r0ycajO1iY/OnlU23GD8W9fg2OhgL/Ziaev0hiSZuGjWx/tYyKA82TTzDk7vEvwdBtw/NfMnANvRPa0R3NnVUbjm6JxKceD73Tg58Y+PEZiGmxRoD9+IDtdh8yQYKSnAxJZEh3TcHlKgkYudnt5d+J8nHhn933EL1dhWQ7OmyUGCAGiIEQDJBYC2GUnXgAURy7X2iqU43q1GIqEtLLUD3mRZvDWHdEDIRngIkK4rjtUjKRaj+CwxOT4FP5ZLPwNiPbkG2Igb3LAIk1Emv0gNwiA4wV48Av2lTX4OR9dA63YJ/pHyKoYQ3fsLLEZhy690T9380jV6+gvj4nYIqRbBfedmQbsg0xsPcYILG2xQc1VZa9V1nI5+RzYoAYIAaIge/BAIk1Ems0skYMEAPEADFADBADMcwAibUYds73UO+UJvUaiQFigBggBoiB2GKAxBqJNepNEQPEADFADBADxEAMM0BiLYadQz2b2OrZkD/IH8QAMUAMEAPfgwESayTWqDdFDBADxAAxQAwQAzHMAIm1GHbO91DvlCb1GokBYoAYIAaIgdhigMQaibU905tKsrvQ07o/7HleVuHUeMVW47VZf5B/f2z/bdbfdP3u8vder78k1nZArPGT7IuOPMSVscNI2eT/U/7oDcqPUnbGUtA6uYbx/ryQ4tQq/Ef3017PP/l3dz24vxXPP0r79q3ssdl0dsp+VH9/xq4Vaw0O40/cvxyzoVM0/rx9s8BZXc9YHKrPL8Fz/zhyIoi14v8sw3vBoYoFxrLQ+XAd55vlkOLBKs1YCY+27NHk92vah6X04dqbBXRmheYgOLziwn/x7PfP6mt++QEc3/ifCazS/1b8sKor8C64URyB61C+ZUxGw811vw11W55xava3CudxsoRyHLo0h6nnK/D+73OMHW9Aaoh6nNh4F4+851AQwUfB/g2VZ/NvO2XfrdrPnJfv9ZnZ3fAsr+Pp0goeeu7BVZMBYZMcfK+8W6XLaq7Du7yRz/llL5qTjDZiJ9s3qzzFYjiztWD09TrmPSNI34Lvd8p+oeovU4rRfGEO91/+Be/CS7j/04p0yfDd17SnVfv8NdLetWJNURiyEgRkZUhY+spiLVrHfE0xEm0eYvm6r2mflO4nePpwGGlhGpzgcFtSBlLTs5BqH8Wd7yDWrNLfKTFhxcNWxQb/c3YlOUuzYXohqk8+xf1pN+wpulizCldQceEPeKfOo6akELlVA7jw7C9c6cwK6NwwqQJHH/8GV1Hk/xUN9q9luXeoM7VV+1nl71uEM1uS6r+07BJUuKbw4PUTtKR9m4fh1y4fk5ORwut3eg4OTazjzslaH6upUITdUcadsCEX7NPeBYwveXAw4fvZJbj+8val6OQSvPfHUFOSj+z9HTj1eBU3XKFnTnbCFuY4rNpn87U79TlmxRp3xtluBQ8KBH/jXFGrYN0p+r9X18pYdUo43iJjbVDGcqsEZ1wgUCxJwmIEscbiHDg+9wGe232b6jkwlofemcCe2dzlFn/euINY8gH0TSxiZvG/mLw5hLZzbzaOrPV3YOThW3hf/o4bFw4jwzRywJRCHBz14u7CitpzuHSyacPIQrj8s6xhjD+7iQH3MryzV3HgoBv3Xv4Bd3ehv3fMEuw47H6KqRervvgbkWpqqLh48lwcRvut1/AuvsfkxCjs+wz78nB9xGTecwIZQULIKv7t2ke1cRT+YywDh6fWcMMV+KDXK1GkcNWOYcQaiytGy9gcpn7jIz8LGB2sRZLJBlb+s7KPWj7uxxDp62LtwkAX/uPh/CzjxoVDSDfzY5W/pFq4br3A9OIa5l69xcT1YRT56k/YkYe7g0g2l9HC/kzMwoHRZxh3dyNLNtjx2z5MOGPlGHr2FkftRv1Pdc3h6c0uyKb003u9uHG0FKLpNz1u/T2Ufw37deOkar8/8MtYNzJ9PXMjfGv2jcZ+lvzE7UfHtefwvPwvJn8ZROu5ZXjOHfC3MVb1MxJf0bQPuv34O/8fXNfjNZw7KPnTZxH4Ue/hIx+8frz8iCcLLzB2zIHkKNsXlnkMt97MotUn7nl8QoUb0wtXUeaLQx1Z2WL8etn4NJ3j+nrI5RGR2rdo7Bcpf4zFo/FW4PODt6XmZRqR+IiKTwv76zaI9J49sIDpMx1ov7+CU3WG7/k9Vv6PZD/1fovnj56v0PU3BW131+E+nOTnMbnuDE71Vvjbgkj2V9OP0D7qz/fRRqPMhWxvYK8AACAASURBVFwcjjX401PjCNM+63nfyfcfXqx97rPBnS+gOEXEhXYFqw0i4kwNt6VYS2rH2OI65h6fRq7pPisj80oen6KPHGSh4sxrmMUaYzZUXHiLJw8voaa4EHl1pzH29P0GsTY9NYaGMj5ycBSXFj7CfThNhYExEYUji3jiuYK60kJkl3fjzOwqrnQFCg4WJv9qY/L6Cbr2V8A19Rdun25CfucUvHPnkccYeP7tF95h+tYIqkqLkL2/E6dnP2CsdZ8fRl7Zniw8xsDB/cgpbMCRqQ/wXGqE4rOTlKiNPmX2eBAs1qzi3659dP+EK78ezt9Z+hB+efMUh8OMCkQKDyfWePl4z+7JQzdq1ZEf7r//YrQxOSr/WdlHz3/49LVpdM/UJRzcX4TcmhFcef6X339W+ePx5x9fxJN7p7E/LwcZhU647rzFrYFiLf9KKjJz8pDZdhvehXHU88/8lZbkbwxV24bhz59/dSrtE7xPn+F0b3lA3VTvDxPOmAMnF1+iN98QeErrA8ybxCKLb8KZxwu4MrUE7+JbjF/uQ55iXO/PQwj/6w87z9RFrf5VDuLiwidc7sjw+W979mUW9rPyD++s5g2/xNzjX+AsLUZBwwW4599vEGvh6qcVX1btg2471UeCgtTaS5hYeoP+EsO+EflhIopPLeHRnVOoKMxHjr0HZ2ZXcLEtJar2hbECuLxruNim1Seej8IR7WHJhTlvH7cTv14+bqdwYi1i+8Yf0hHb18j5Cxx5zkJ61Sgmlv7EyQMJPv6s2hedT9/zo/oELgfUf6v0y9E/+xGzr4NeVw776zdjSWi58xfOHlRQcPwVpk6W+33H7RfJ/zw8ov2ieP74fRSy/oqouPAenmsdAR0A/z0WfFjXP20whsRaFIv6ox1Z+7dJ9O/uE3Nt+NslwW4SXVZiTYMqHYmK0YPXHb6Z99xjL4PEmtbYjDZp0zO8PFUXP2wQa1e6Uv0VoODEazy+1OirrLno9qzhfKOxpi3FcQ4nu+z+kTE9f1LixvyrjfGL69jPGLjoGmuNh/rb82vqb/q95vfiU282PAzmrrdD8tlTrLuJJ/MXUGCyL7/f1nxvg1gzx6t/NsevN8ZbtY8eJ38PVX5zePqRZ3h6bxD7gvKtXxMpPLxYykPPozXo+edxqQ8T/5rE6P2n58NsH/238OlrjfW1Hk1c8Ovto+8xfbbWx0/k/KnXn3+PmUuNfv/qaZrfo5nGi2R/pqQgI6cYJc1ujL9exrEKg2eeTrhwQ6ztQ8O13zE+WIZgscZ7/Z6JoyjaF4+E3DacerKGeycrNtSPUP7VxVpw/Xvir3/bt69avjBr/njPPTI/6Tg8tY7LHVrniXdu6q5+2lL91P1p5iva9oHZx/BgaQ3zb97j6oDd31Hjcdoj8MNYIVzeFYzUGOIua2ABs+4mf3vH26VI7QtvD2evH1JHUrWRjlWccSo+vrcfv+qfCGJNt1uo9s3KftGUX4+fSYXovr+Ke+fq/Z0Zaz40Pq92a517Hld5QP2PbB++ZjQx09cB0zti/D013u8fJjXh7OJjtCQziDU34H0wjFRTGxrJ/3rZ+Hso+5nD9c9mPvXf+Huo+st/FzIOY3T+E7yPZzBytBulacZSCCv7W9uXxJofBLMzQn2OVqytOYxpUaaIaM8XAtYlRSPWQqW/2d82ijU+jRPYWPHGKdIGg4wjzzB/vV3t2WjTQIH3byZPYRsTn4DjcSVXncbYo9/hfeXrXS2tBwzzmvPLr2fJ5ahrrAiYBuO/h6uMkeIPVT5zevrD1LwBw2yfaG3BWDa6ptdwpSs9JHuW4WGGuUPl35y/UOHBeY5kH/1aK7Fmto95mD5U+ub88fiVyouYfL2KqYfTOHP2DFpq8gKmGPk10Yg1Pa+R3nlPttq9insjgb1z/Z7gcEOsMYjx+5BgYwFijbFKHPv1ObpzDDEQ1zKFuafnkW96oITzrxVfocI3a99I9rPyD592PPJkDacdRvl4/QieBtXbEzWtoPoZia9o2gc1Tj7yuXAT1YnGg1D3WSR+tPKtY27JNHLDRZ+vfeNxmOt7qPwL5Zfw8OUEqiQGljaIG0v3Ua9P06vT5NuLX01zp8War32Npvxa+jYUHFvA45lRFJqWCVjzoYm1yPU/sn14+pFebP9FPPSeRjYfyYzrwKWlh2gwLTOK5H9zvFt5Puj3h6u//nBbBkpbRjB86yW8L/8XPSW6mOfP3/Dlt7YvibWIcOgO4O9bEWvm+/XPJNaCRtb0xkSqx8hv/4W7vx65vp5V3YXfI4o13abB76EqI7OIP1RlMTfeoR6WwWIjOB+hvrPsE5h48xgtprUv5ussw7+SWLOyj57HrynWeBpKWgVqO05gYMyLqderuNadG1BHtyrWmKAgYV8SbKY1SprYcarxW4ZbTIOqD++gtXys/BI8L2+g3CzWwvjfiq9Q4d9arPXNbk6s6czwdyu+NifWwu8GDsePVr/f43RL0OiNaeTGXN/Nedc/M/EARhbeY7hKRFL7I8xNuJDg8+1OxK/a6auKtcjl5+kr5WOYXHyKjnxjbZSWr42dfXP7Fx2f4dPn9rOaBs3sX8D80kd4F1fgXVzF3JsPGKk1BkfU/Fu0H/yarTwf+H2qHcLUXz1cf+cjhcX/WcTszS51dNKKDy08cDAk0L4k1gIeBLqhQ70zxjB0SMFcqdaz5N8POhS8rTWmK/kGA/PIWsh4EiW8jLDBgN8j2OIhb3PL78aRNT4MbUyTbX4aVJsmOd+o9RR4PlMb3Rh1bZzmCZV/q8aYpQ3hl2UPDvp7qoI6jWZeQGnVmOr2DlkZLeLXhqm3bh89bSv/8amXuTtHkGh6gJvvtQpnmeEW+FtNY0X2XzT25/kMn75Vzzpy/lS7iRIEk5jitpi/1RMw1cUqL2PG4uiOkPzJhzH2xlhzpo2crfjXvTCr8DAbDObHtfyx5CO4tvwafcVGe5DUMYOnnpGAjS7h/Ks/7IKnQY1lCNu3r+q/MPaznobR0r/Upk1L8faj+tJqxJE1M9dWfFm1D3pc6tq77NQNI65W/Gj1+xPONhgiRE7JR26atiaL32/VvnBmatwfcP/kAdRf+4ir3cbo+E7Ez/PA0wi3Zk23Qcj2jXfiQi0z0TvD6jRw5PKz+HqMPP0v3B3ZG6buo+Uj/Mgaf/6ET99qGpSxRDRNrOGyqxgZWbnqq27sD9w9sd//DBeiaD+4DUPaz+L5oNs+bP0VKtBx/Qrq042RZzWdRyeRqa5ptCp/5PaRsX1om1zH5U59GYKAyrEP/vZLz1+49lkP38n3mN1gwAtZZJfxT48NHWkCSnMk/Dqo4KbpnKyoxJokwnNUwWShgGx+lEeCgATTA4oltmL0+RpmPScinpFmZfSNYi14g8EZXJrfuGbNc99t2mDwCe520waDk68w69tgkGPvxdmnq7jSmemvLDxP4fJv1Rgz0YGTz1dw/Xgj8nIKUdrsxqWn76IeWeNraBLStA0W6gYD7wWUqlvhMxBvY7CKf+MGg83ZR/dHuPKrtmH56PWuwX3Y2DSh3xdNuHqNcggXlv7E6eZCpKnlS0OcqC1wLjr5Wt1goB0toW0wOHfQtMEggv+s7KPnk4VN30pMiIicPwV1V1fx4PoAygpykJ5Xja6J9/CM1gU8OFjeKUy+eYa+ymJtg0FKXHT8sVQ03lrB9K1h2AsKUXjQjfFXbzBQpj28mWV4iKM75j/hem+Omj7fIdY6uQrvQzfqS4uRVzuMS7/+hStd2f78sQj+18Wax7fBJ4dvMPiVbzDQBIEeHv5hGNm+fv+FsR9fIB/ZPyLKzvyBJ1OnUJAgQcnvx/n5D9GLNYv6bdU++PMvxiMpOd6/6Nz/O4vMj74B4PHDS6jlRyuUtePkY+4fo/2yEms8LeXgJJ54vLjy/Fd0ZBoP5p2KP5xYs2zfLMWatsA/XPn5btDKi3/AOzmMQrVd0drSlCR9Gs+KD+v6zzdghEtf92O4dyYdxOnFl+jJM2yuNN/D3NRR9eB3Zun/7T0feL4i1990tNxZwf0bQ+oGluzSNhybXsWDs7W+ZURW9o9sX55+dv8CZr03UF9aiLwDp3H95R84UW0Mnqh5DNM+h7Prdn6PabHGRAHd9Tb82S9jzSXjbpkQcDRCVGKNMZSU2PC6T8GXY/wl4z/mQw/jnBh5ugLPZH9Aj3yzRlXFmrvZ/6BQHake3fEKM4sfcHf8OA6f37hmbWywRz164fHLP3DjQgcyg45eaLzwBHcX9KM1Qh3dETr/0TTG+2pH4X7yDo8X+bENgzh48uUmxJq2JkA/ukN/n19exoBvNNQqfu3ojq3bR7VxBP+x/P9gcukRDpr8bfarVbgaP5OQ2zGJ2wsf8XR5HfPLv6HLt07Kv7VePbT1N5wPProjrhiR/Gdln0jpW4kJzTa+o0XC5E9Ib8LRyVeYeb2GucW3mJw47z8HTbcTY2moPjuP6Vdr6jEt5pFXLY3Q/PEwYV8dXL/8Bs+rj/DOz2HkcHHACI1VOD8U97B7Dvefr+LJb4twn2wOOLpGSK5Fz/UFPHz5EY8XfsOFo/UBO8Mi+ddvP350zvRb8Pr3y8WNR3eEE2vR2Fe9JoL9LPlJbcSIdxXzb9bwZPYGBtx/RC3WeNqR+IqmfeBx5PYv4MnreRzONh7a/Hf+suJHLd+leTx4+RHehRe4NNKIFFNHORqxxuL5Wql1zPvWTulp8/cdiT/MyJo2TbbxaA29fYvGfpHyx0fOgo9+4m2ouX5F4sPPr+lQdfM0fTT2Mdsy+DMrvYAHL2/AbvKXWualB3D4ZmMi+d/Kfjy9SHyq+bdov4W0eriu/4r7z//C7IslXB87gjzTmrpI9lfj14/uCNM+MlsenKOPcY8fzfTsV5zprUB80AwNF/vhng/BNt3u95gWa9st3Le6n09R8G3EUycrAsTat0qf0gm9UDbv2EvM3ureUMF0e1mF69fRe2j7xrpdIvlXf9iZd/PGYnmYYENiWioUiaH0zJ+YPlNNbYzFwvhY9CPlafNtSKT6uxftSWJtixWfifFI5sPXGXkocJzHjZdvMGQPPJZgLwIVK2Xmu+n6Zj9hrNU4NNGcN6tw87X0efMN7fe2mZV/dbFmHjn73nkOTt88FZeWU4v+6U+40mms2wq+nr7/eJySz0L7zKr+7kW7kVjbqljb14drfFrszSc8mtOmePTDYvciSFTm0I0O2SU27fJjiLVKHFvQpuKevn6LiWv9yDMd70BsxSZb5Bfyy9dggMTaFsXa13AGxUmVnBggBogBYoAYIAaCGSCxRmKN1sAQA8QAMUAMEAPEQAwzQGIthp0TrKzpO/W2iAFigBggBoiBvccAiTUSa9SbIgaIAWKAGCAGiIEYZoDEWgw7h3pPe6/3RD4nnxMDxAAxQAwEM0BijcQa9aaIAWKAGCAGiAFiIIYZILEWw84JVtb0nXpbxAAxQAwQA8TA3mOAxBqJNepNEQPEADFADBADxEAMM0BiLYadQ72nvdd7Ip+Tz4kBYoAYIAaCGSCxtsvFGqu6Au+CG8VBf0AbDMJWv3/t+LeaL7qPGjtigBggBoiB3cIAiTUSa9sa+iaxRo3hbmkMqRzEMjFADMQqAzEr1hgTcLZbwYMCwS8mKmoVrDtF/3emCDjXKmNlUMG/gzJeNUmotDEjXBLQ77Dh3aCCz30yZqoEpJlGmKprZaw6JRxvkbE2KGO5VYIzTrufp3+yQ4HHLmKyU8b6gIwFh4hcwRS/TcBwgw3vBhSs98nw1orI9MXPkiQsumxwN8hY67XhUL6EPwcUPCkTIOjXWOSPQ8PiHDg+9wGe231IN+XdCihWcx3eZe1/BZ/9/hn6a/7uIJL19JViNI/NYerlRzxZeIGxYw4km8uXVAvXrReYXlzD3Ku3mLg+jCLdPlHEb5VHCqeGkRggBogBYoAYsGbghxZr+6tl/N0uoS5ZQF6KiPOHFLyo0MQdYwxVtQr+OiThYIqA4gwRd3tlzBQZYouLtc99NrjzBRSniLjQrmC1QUQcY9DF2kq7hJ40ASVZEub6FcwUGfE3OGSstEhoThNQlC5islfGo0JfOBdrQzJOpQs4165g6YCI/aU2rLsklKnxW+ePA8yS2jG2uI65x6eRuxmxpqQiMycPmW234V0YRz3/zF9pSRDV9EUUn1rCozunUFGYjxx7D87MruBiW4pf7OYfX8STe6exPy8HGYVOuO68xa2BYjWcWcRPlc+68pGNyEbEADFADBAD0TDwQ4s1p0PBJ6cIWwgRw8XWaI+M8SxDnBXYZfzTYIzMcbH2b5Nxv5hrw98uCXaTWJsvNUb2HPUyVuqM78EGruIjdXVa/OrI2oAN9YyBp8NFnv5bnS9+q/zp8UuJ6UhUwqerXxfqPdw0JWOFcHlXMFJj2CdrYAGz7ia/WLOff4+ZS42QQthXTytc/Ho4vVNDRAwQA8QAMUAMbI+BH1qsxWdKWB5S8K7Dhrt1EgayBHVUjEPBxdpll4J/jyr4Z8h4fWkS/eKDi6g1hyHemCKiPV+bKtVH1qYLDDETPA2bmilhpotPofriP2pM0+rCLJRY479Fk7+dgDucmGKsHEPP1jG39BGzr32vpTXMX29XR9542krlRUy+XsXUw2mcOXsGLTV5kIOEW7j4dyLvFMf2KjfZj+xHDBADxMDuYOCHFmscwrh4AW0lEtwOGW+HFDwr801D+sTaZKGAgiTTK94QX8FizQy1lVhjoojxfgWzdhGlyVr87Q7Zv6YuWrEWKX/m/Gz1czgxpYm19zjd4pse1adJU+P9I2s8TSWtArUdJzAw5sXU61Vc684NCA8X/1bzS/ftjoaF/Eh+JAaIAWJg5xiIYbHGMHRIwVypJq74GrSDDgVva43pQEEQ/KNAHAo+zfmlRUS8aZrxXp4hzuLiBJTslFiLl7BwzIZe34YGnj9n/ebEGp8GjZQ/HXTBFg9ZMsqh/x7NO6u8jJkQR3do06CfcLZB8osvOSUfuWkJ/u+CKEEwbTjg06Tzt3qgmEbXwsUfTd7omp2ryGRLsiUxQAwQA7uXgZgVaxy6Ir7GrMeGjjQBpTkSfh1UcNO3Bo2Lo/ZGBe+bJBxIEZCbLOBUm4LVelHdbalvMFjvlNCWKqAwTcREj4J5n/jj8W9rZE0QMTEg49dqbWStptAGr2szYk3bYBApfzyPLLEVo8/XMOs5gRyTSIq2UrK8U5h88wx9lcXaBoOUOFWMMaZtMHj88BJqS/KRXdaOk4//wpWuTF+4grqrq3hwfQBlBTlIz6tG18R7eEbr/LtZ1fyFiT/a/NF1u7dxId+Sb4kBYoAY2BkGYlqsMVFAd70Nf/bLWHPJuFsmIMkkWMQEEVcPyfg4pB3d8abVhgbTyBmzCRhwynivH61RIyLTNFK0HbHGAczIljDbI2Pdd2xIb030Yo3fb5U/9Zo4J0aersAz2Y8MU9mjrQCMpaH67DymX62px3d4xxr8I2csrhgtl+bx4OVHeBde4NJII1JM9hHSm3B08hVmXq9hbvEtJifOw54SOMIXKf5o80jX7UxlJjuSHYkBYoAY2J0MxLRYI+h2J3TkV/IrMUAMEAPEADEQPQMk1nb5PxhQZYi+MpCtyFbEADFADBADscgAiTUSa/5p0VgElPJEDScxQAwQA8TAXmeAxBqJNRJrxAAxQAwQA8QAMRDDDJBYi2Hn7PWeBJWfetPEADFADBADxMDPILFGYo16U8QAMUAMEAPEADEQwwyQWIth51BvgnqUxAAxQAwQA8QAMUBijcQa9aaIAWKAGCAGiAFiIIYZILEWw86h3hT1pogBYoAYIAaIAWKAxBqJNepNEQPEADFADBADxEAMM/BTVVUVEhMTd8xJSUlJOxYX9SaoN0EMEAPEADFADBADe52Bn9LS0lBRUYGEhIQdEVkk1qhS7fVKReWnOkAMEAPEADGwkwz8xCPjQm2nBBuJta0DGumP5bfqdFZ1Bd4FN4q38Cfw0aQZKX7GJKQ5r+L24jrmQ+SBJVWg3f0UU89X4P3fBZw/WodkXz4Zk9Fwc1398/lnv3/2v59xBv6RPM8jE3LRMbWK8cFiCF+pnNHYgq7ZOvtkO7IdMUAMEAPhGVDFGjfQTgk2EmvhjW0F4m4Sa4zFofCIF56XCzh2+gFmgsQaY8mov/YenokTqCwqRG7NMNwLH3CheZ86wsuYACU5C6np/FWI6pNPcX/aDXvKRrGW2HwP3mfXsF/ZGGZlcwrfOq9kO7IdMUAMEAPfhgG/WOMG54KturoagiBseUp0p8Qaf1if7FDgsUuY6FKwPihjwSkhXzAeyMwmYLjBhncDCtb7ZHhrRWSaRlaYIuBcq4yVQQX/Dsp41SSh0ma6P0J4vl3G+1oBjDEcaVXwpkr73Nui4EamFgeTBPQ7ZLztl7HmkvGwQkCqKX0uvladEo63yFgblLHcKsEZZ05fxFirjI+DCt60iBiqk7HmEANsz+IcOD73AZ7bfUg3xW1VQVjNdXiXN45Mzd8dNEavlGI0j81h6uVHPFl4gbFjDiSb7ZtUC9etF5heXMPcq7eYuD6MIl/+reJnLA/tl6+jPlsBs7vhCRZrggPHnz1DV75hj8KTS/CONQSWX8zCgdFnGHd3I0s2rtXLz5RanHjGRV5KwH16OL1/m4aE7Ex2JgaIAWLg6zEQINa4oblY247Bd1qsrbZL6EkTUJIpYaZPwVyJJiS5iGpwyFhpkdCcJqAoXcRkr4xHhYbQ3F8t4+92CXXJAvJSRJw/pOBFRXThUr4N/zSJkJiAS20y3hwUITIBoz0yhuMZuJisrJHxudOGtlQBJVkivH0KHhQY8XOx9rnPBne+gOIUERfaFaw2iIhj/H6efwV/d0poTRVQmiPhkUvZKNaS2jG2uI65x6eRuxmxpqQiMycPmW234V0YRz3/zF9pSRDV9EUUn1rCozunUFGYjxx7D87MruBimyF68o8v4sm909ifl4OMQidcd97i1kCxygezjF+A4BN+ocRaMGOMiai48A6eMzUB/Kn3Ln+C9+kznO4tV22n38vvyT26gNkHw8g0iUw9nN6/XsNBtiXbEgPEADHw7RiIebE2X2qIH3u1jM8NgSNPZliq+EhWnRHudCj45BRhCyNyIoWzFAl/dErIEURMNUq42SIhm4mY7LehURU7Ak53cXFmjPbYa/jImJFfLtb+bTLSF3Nt+Nslwe67/1y3cT8Xb03OjSNrvHxSYjoSFSNec5mtPodbU8ZYIVzeFYzUGPnPGljArLvJL5bs599j5lIjpDD242mHi9+cr2jEmpDuwpWXS+gvlfzpq/ErKcjIKUZJsxvjr5dxrEL2h7M0F668WsLQfu23uqvruD1U6A8354E+f7tGhWxNtiYGiAFiYGcZUM9Z46Np+oia/r5VQ+/0yNq0SQzllcv4oo52aQIjlY+2dfEpRgX/DCn456iCdach1uIzJSwPKXjXYcPdOgkDWULAyEykcGaT4O234UCShIfVIo612OCIl7DQJSHfJ7Yuu2TcyjbETnD+gtegMUVEe76AtDD3B1+/VR+Y7wsnphgrx9CzdcwtfcTsa99raQ3z19vVkTceh1J5EZOvVzH1cBpnzp5BS00e5CDhFi7+gDyEmAYNCI8rR5/nAyZPVUMJil+/jm9WqHav4t5IuSrGGEtE7eW3eHS1DQm+e0is7WzjoNue3smuxAAxQAx8XwZifmQtnFhjoojxfgWzdhGlyQIKkgS0O+QAscbhiosX0FYiwc3Xlg0peFYWOEIVLpxPc17rs6G3wIYHRdqoV3+uhPeNfGpUmwbdrFgzw87jD77/24u19zjd4pse1adJU+MDRqaUtArUdpzAwJgXU69Xca07NyB8u2KNiXlomXiLhze6kCYawpcJChL2JcFmmt7U1rQ5fWKtHidf/oHB/cY9JNa+b2Ni5ps+ky+IAWKAGNg5BmJerAVPg+ojZ4yPch2zode3YYBPIzrrA8Ua3yjB12fpwBTYZXxpERHv+y1SOI/v2GEZtxw2XM1g4Pder7OpGw14fFxsRTMNGrxhQM8Lv3+0J7ppUMEWD1kyyqHHEc07q7y8YSemln8+DfoJZxuMaUc5JR+5acZ5e4Io+ded8Xv4NOn8rZ6A0a9w8ZvzFm4alAmpqHEv4dHkMHKDNg8w+TDG3rxEr28DgjaytoKpk/rImgMnFzduoKBp0J1rHMw+pM9kV2KAGCAGvh8DMS/WVnwbDIr5lOcR0wYDQcTEgIxfq7WRtZpCG7wuQ6xxsdXeqOB9k4QDKQJykwWcalOwWi+qZ3FZhXMoDzpk/OmyYSiewZZvw3KvjJkiTTTx+/UNBnyDgL7B4H6+MXIXaaSM3x+8wcAbaoNBYitGn69h1nMCOSbhGW2lYXmnMPnmGfoqi7UNBilxvpEpbYPB44eXUFuSj+yydpx8/BeudGX6whXUXV3Fg+sDKCvIQXpeNbom3sMzWhdwlln4+CUkZvhG7VrGMePf5JCuij3GFBQNL+Dx/AScBfoRHVlITU30bYBIReOtFUzfGoa9oBCFB90Yf/UGA2WauGQsHvtyCpGTb7zaJ2jNWrRc0HXfr9El25PtiQFiYLMMBKxZM69d22xE+vU7vmbNLmK8Uzu64zenhALTtFhGtoTZHlk91oMfy9FbY4g1nh8xQcTVQzI+DmlHd7xptaEh3hihsgrnx3d8GbThIJ/2TJPw7pgMd5pxv3p0h9N3dMcRGdMhju4IN7LG88fXsOlHd/zRKmHYsXGDAYtzYuTpCjyT/cjYilhjaag+O4/pV2vqwbLmozFYXDFaLs3jwcuP8C68wKWRRqSY7CukN+Ho5CvMvF7D3OJbTE6c33DOGQsTPz+6o3dm48jX/PI91El8GjkLnQ9DhD8+7Relwr46uH75DZ5XH+Gdn8PI4eINa+Z07vg7TYNSA2jmgT4TD8QAMbBbGIjZP3Ln04T8nLWHpg0Gu8XoVA5q5UPd5wAAAXtJREFUQIgBYoAYIAaIAWIgWgZiXqyZNxhEWyi6jioAMUAMEAPEADFADOwWBkis/Uww7xaYqRzEMjFADBADxMBuZCBmxdpuNDaViRoRYoAYIAaIAWKAGNgsAyTWaGTNf7TJZuGh66nBIQaIAWKAGCAGvj4DJNZIrJFYIwaIAWKAGCAGiIEYZmDHxRop7K+vsMnGZGNigBggBogBYmDvMEBiLYaVNFXEvVMRydfka2KAGCAGiIFwDJBYI7FGQ9/EADFADBADxAAxEMMMkFiLYeeEU9j0O/W+iAFigBggBoiBvcMAiTUSa9SbIgaIAWKAGCAGiIEYZoDEWgw7h3pNe6fXRL4mXxMDxAAxQAyEY4DEGok16k0RA8QAMUAMEAPEQAwzQGIthp0TTmHT79T7IgaIAWKAGCAG9g4DJNZIrFFvihggBogBYoAYIAZimAESazHsHOo17Z1eE/mafE0MEAPEADEQjgESayTWqDdFDBADxAAxQAwQAzHMwP8HEdxEactioloAAAAASUVORK5CYII=;" vertex="1" parent="1">
                    <mxGeometry x="50" y="160" width="480" height="113.21" as="geometry"/>
                </mxCell>
                <mxCell id="3" value="" style="shape=image;verticalLabelPosition=bottom;labelBackgroundColor=#ffffff;verticalAlign=top;aspect=fixed;imageAspect=0;image=data:image/png,iVBORw0KGgoAAAANSUhEUgAAApcAAACQCAYAAABd9kAAAAAgAElEQVR4Ae2d+VcTydv25++pb68PCMhhXw6ETUAWITnsKHtkUxQcHRE0rqPioLhEAiI+w8yIol9HHWFGmJl3fP6n6z3VnU53QpIOJo6I9w85HVJdVXfd9enqq+/qKr75z3/+A/qQD4gBYoAYIAaIAWKAGCAGEsHAN4kohMogGIkBYoAYIAaIAWKAGCAGOAMkLilyS5FrYoAYIAaIAWKAGCAGEsYAiUuCKWEw0RMrPbESA8QAMUAMEAPEAIlLEpckLokBYoAYIAaIAWKAGEgYAyQuCaaEwURPq/S0SgwQA8QAMUAMEAOfTVwyxnCwUsFjp4gcxkjgkMglBogBYoAYIAaIAWJgDzDwGcWlgDanivVuCaUkLuli2gMXEz2t09M6MUAMEAPEADHwH3xTW1sL40MOoYuCGCAGiAFigBggBogBYiAeBgKRSy4wjYKYKuBsh4L1ERX/jCh41irhoKxPXTMmYKJbhbdKwkyviq0RBSsuCUWCObVdW69gwyXhRLuCzREFLzskuJKC0/9v7H/APx96JRRaIpdm+SJmexRsDStYcYoosJTPZAEnWxVsDKt42SZhpEHBRoMYsJ+3gyU5cWLpHby3BpFlKd9oIx3pwiEGiAFigBggBogBYiDxDIQVlwdqFfzVJaEhTUBhuohzh1X8Ui1o4s0QfxtdEvozBZTlSJgfVLFUpqfzTuLi8s9BGZ4iAaXpIqa6VGw0iUjyizxZEZC7T0BRhRxRXK4b5edKWBpSMV9i1M9QUaPgn34ZvZkCKgslPHKr28VlahemV7ewtHAaBSQug4Q3XUiJv5DIp+RTYoAYIAaIAWJAZyCsuHQ5Vbx3iZDDiDJDXC6Xm2KyqlbBn01m5JCLy39azfxigYy/3BKqQspTiiOLS2v5zkYF6w2GuBQw1mWKWb4wqKtlu7jkHSylZCFFNe2kTqcLnxggBogBYoAYIAaIgU/LgPbOJXeydVo8OUfCy1EVb7pl3G6QMJwrBKKOhrh8UGxOcxdWKvjQKkLyi0cuLjedpthkqoiuIgGZOxCX1vKr61VsufTyeP1T/SpmC8z6tWn4kGlxAufTgkP+Jf8SA8QAMUAMEAPEQDgGwkYu+YlJyQI6yyR4nApej6p4UmFGDvk7l1bxZycuw1XMf4sWubSWHyoupwdIXEbyKf1OFzoxQAwQA8QAMUAMfE4GNHGZlJSkRS4FQReQ/ChaoozFVQo+tItIZgxG5NI6bc2nxY3IIm9MaOQyUgM/Vlxycesr0SOXfFq8rSn8tLggJ0ORzAhnJDvod7oIiQFigBggBogBYoAYSAwD30iShMrKSlRVVfkX7OjvML5tlXAoXUBBmoBTnSo2GkUIFnFpLLgp5Qt6jprvQPKOiSYuuRhMS7Ys6OmTUb9P/ztVNMVr5Mglw6FD+oKjKoUheb+E++4wq8VTOjD58yYeeU8i3yKUCZzEgEN+JD8SA8QAMUAMEAPEQDgGvikpKUFeXl7QamJxn4jLhxX8MapvRfSiQ0ZTshEp1LcielAl4maPvhXRTy4JxZatgqKLSwEX3aq2DZGxHZG2JdFxBZ5Me3HJG8GSRdzsU/HhuIo/B2R4msKIyyQXxh+vwzs7hGwSl0H9Gw4E+o0GCGKAGCAGiAFigBhIBAOauNxJQca0+H3Lgp6d5E/UuTwCuj9ZQLLIUN+g4p1/NXmiyqdy6AIjBogBYoAYIAaIAWJg5wxo0+I7cZwhLq3T1jvJn4hztal1/1R6XqqACz0qHlv22UxEHVTGzmEin5HPiAFigBggBogBYiCwWjxWGHaHuBRwZVCfWv9nVP8PQuW0cIemvun/kxMDxAAxQAwQA8TAZ2dgx+IyVhFK59GTCzFADBADxAAxQAwQA18fAyQu6Qnnsz/h0MDz9Q081OfU58QAMUAM7F0GSFySuCRxSQwQA8QAMUAMEAPEQMIYIHFJMCUMJnoK3btPodS31LfEADFADBADsTJA4pLEJYlLYoAYIAaIAWKAGCAGEsYAiUuCKWEwxfpEQ+fR0y8xQAwQA8QAMbB3GSBxSeKSxCUxQAwQA8QAMUAMEAMJY4DEJcGUMJjoKXTvPoVS31LfEgPEADFADMTKAIlLEpckLokBYoAYIAaIAWKAGEgYA/+KuKytV7DpFHdkNMuRsDkoo5axHeWLVVXTefQERgwQA8QAMUAMEAPEQOIZ+Ka2thbG51M5mMRl4jvuU/UVlUt9RQwQA8QAMUAMEAPxMBCIXHKBGU9B1rxMFTHdoeCPERUv2kWMNgRHLpksYKxJxpthFVuDCnz1InL8EUqWJ2PruP5/w/9v7H9gfD4ckZBhnBMlP7eDqQLOdihYH1Hxz4j+v8cPymYElEkChpwKXg8p2HQruF8tmGUzAd/1qbhXLAT8UV2vYstlRl65WN5wSTjRrmBzRMHLDgmupODyBxpl/HdQwaa/fblCcPqQU8abERV/DiqYrxGQGRKhZUlOnFh6B++tQWSFpFl9Td9pACAGiAFigBggBoiB3cRAwsUlYwxNThV/9UjoyBBQni/hoVsNTIvr6QrW2yW0ZQooyRIxO6DgoUMXc0xiKEoVUFwia9Pi3fw7/yQziIzBLj937oFaBX91SWhIE1CYLuLcYRW/VPvLZwIO1in4s0dGZ4aAslwRvkFTTLIYxeWfgzI8RQJK00VMdanYaBKR5Levuk7R2t/F25ct4vaAiuVyo36GmnoVvx+W0JwuoFRLVzBfYopP3gaW2oXp1S0sLZxGAYnLgNDfTRcP2UKDOTFADBADxAAxsJ2BTyAuBZzVIn+6WOJisNUVHLkM7YgaHglsMCODPH0n71yG5nc5Vbx3iZDDiDIuHk/3cjFpirmqOm6fIf5ii1z+02qWLxbI+MstoUoTlwJO96i4X2SWn10gYaZc9ItjAZP9Cm7mmunFVQr+bgpuP/eBlJKFFFW3K9Rn9Pd2mMkn5BNigBggBogBYuDzM6C9c8k7IlHT4ly8XXQruJFniqfQdy4zciTM9/IpZRV/j6r4+1jwtDO3J5q4tMufnCPh5aiKN90ybjdIGM4VtKiiVm4Y+worFXxoFSH5xWEs0+LWBUr8NYCuIn1qO1z7raDr6Sr+OeZvO2//qBqo33ouff/8Fwj1AfUBMUAMEAPEADGwMwY+SeQymrhkooibQyoeVYkoT9OnvLucStA7jbwTI4nLWPMnJQvoLJPg4e9Wjqp4UmFGJkPti1dcWqGLVVzOOvzT/ZZpf2s59H1nIJO/yF/EADFADBADxMDuYEATl0lJSVrkUhDin4Ll4mqy35x2Dp0WZ8kSVo7LGPAvsOHprsbw4vJ9mK2IYsnP28HfzzQg49POH9pFJBvT1lGnxRlGD6tYKtfzc/uanSpe15u+CY3EGvXwI28/n3a3TovnFsu4d0C3SfePgjuFpn1JSQLKks2/jfIEORmKtP13I52Ou+Mion6gfiAGiAFigBggBkwGvpEkCZWVlaiqqgqIsXgcxMVY6IIen3VBjyBiZljBj7V65LLOIcPnDiMu0ySsHVMwnaNH+IqS/JFHm/y8/q4WFW9bJRxKF1CQJuBUp4qNRhGCf8GNsaCHLzgyFvTcLTLFYwl/B7JfRnemviDpxxEV1y3vSEYXlwzV9Qr+7pHAF/TwBTtzbhWPy0yxyhf0bPVI2oIiR6aImX6+4CdYRLKUDkz+vIlH3pPItwjlePqG8prgky/IF8QAMUAMEAPEwKdh4JuSkhLk5eUlRFganWTdiuhVh4QxZ/CCnuw8CY/6FWz5twkaqAsjLpmA9gYF70b0bYmsWwHZ5Rf3ibh8WMEfo/pWRC86ZDRZIoPaVkQu/1ZERxU8sGxFxNvARAF9jTJ+9W9VdLtCQKpF4EUTl1p+WYDbqeDVoBp+KyJZwLBLwVtjK6Y6ETmWrYq0MpJcGH+8Du/sELItdRs+puOnuSDIr+RXYoAYIAaIAWIgPgY0cUlOjM+J5D/yHzFADBADxAAxQAwQAzoD2rQ4OYMuCGKAGCAGiAFigBggBoiBRDAQWC2eiMKoDIKSGCAGiAFigBggBoiBr5sBEpf/+boBoAGA+p8YIAaIAWKAGCAGEskAiUsSlwldzJVIOKksGuyIAWKAGCAGiIEvjwESlyQuSVwSA8QAMUAMEAPEADGQMAYSJi5TU1MTZhQ9pXx5TynUZ9RnxAAxQAwQA8QAMcAZIHFJTyr0UEAMEAPEADFADBADxEDCGCBxSTAlDCZ6YqUnVmKAGCAGiAFigBggcUniksQlMUAMEAPEADFADBADCWOAxCXBlDCY6GmVnlaJAWKAGCAGiAFiYM+KS8YYDlYqeOwUkUP/m5sE5Ff2EMGYiMy2KXQONSB5l/L/Jdj4sTfJvdy2j/UJ5SPBQQx8PQx8EeKytl7BplPckUBiTECbU8V6t4TSXXpzDXehNTlV/N/Y/2ifD8dl9IhsR+0OVyb99vVc0EZfM6Yi/+gs3Oe6sT9O/rP6bmNwsErjkLEMVE4toqVWjpvLWG38VPUbvrIejfYdm3uE0ds+DF65jEZXEeQd+jDWtlnrpu9f33VKfU59vlcZ2LPi8kvtMFVlyN0nIDdbwhqJy7gFzJfKwW6y+98Ud+Ha/W/Wb4jL9uZs7MvIQWbNELp+uIvGcoVY/Mqi/+FYpN9IDBIDsTGwK8UlU0VMdyj4Y0TFi3YRow3BkUseydxwSTjRrmBzRMHLDgmuJDPCx9MD0b9eCYWWqANLkfD0uIKRZPN8MVvC+qCMQ4L+G5MEDDllvBlR8eeggvkaAZmWMuzqt4OPlz/QKOO/gwo2BxX46kXk+us28rJUCasRxCWTBYw1yXgzrGLLn9869c9UAWc7FKyPqPhnRMGzVgkHZbO9dumGDeGOPCI80a3CWyVitkfB1rCCFaeIAov90ezT2uWW4WlSsDkg43CRhF+HVSxWCBD8PrbzP7eLJTlxYukdvLcGkWXpm3A2h/7GlHyUDV1C/w0vBq99j+bOCqiWMriYcQ8fQcXEDxi6dQ99p9zITbH6rwgHxm7APfMAveOdKHPfhttdEZP4YJld6L46jtqR2xi8dByFB0fQPzOH9uZc8Fc59LY5UDF6GQMz8xi6PoO23oNItvjXzj6eziNvWvTtfDdSLG2LpXyWUoGaU7dw9JbevnL37PbIZUcjGqfvYmjmDg4PNiAlxgg7Yzmo9iwG7OM2jhyrC/JdvPUzJQ+Oox708f69fhNtvTVIjtm+4Mgs5z336D0cdR8I2BiP/1nGEXTfvoiyVJMnwTEC9/XjyDbGHyUfpUOXMHDLh6HrN9F6pBJJO+j/UN7p79huhuQn8hMxkDgGdp245DdYPjX8V4+EjgwB5fkSHrrVoGlxLu7+HJThKRJQmi5iqkvFRpOIJP9NVFYELfpXVCHjQ6i4ZALO9qnwlQiBm0VVnYJNlwiJMe0GX1Ov4vfDEprTBZRmi7g9oGC+xLwZ2NUfDVDevuo6RWtfV6aAEq18Fcvlpj08fyRxqftHwXq7hDaeP0vE7ICChw4z/4FaBX91SWhIE1CYLuLcYRW/VMeeHt1+XVyud0nozxRQlithaUjFvN+fdvZp7RpVcCpLwNkuFWuHRBwol7HlllARo/91/3RhenULSwunURAinqLbLyKz9wcMTQ+joCAX+8sOo+36AzTX7AvwwMXD0HUPag8WIS2vGgcnvXCP1Pj5EJDeNYMRz0kUF+Yjo/oo2q8+2Jm4nPWgssiB6sl59AzUIN11FkOXjyJda7+I3KF7cE/0IL8wH2lFTrguedFanxKTfbztYnI69u3PQErzNEZDxCV/FzBa+YxJyBu8i2Hun/xc7D/Qj9YrD7aJS/fkIBxFeX7/+dDemBawz87/cmqGZh+3MXfghyBxGW/92ruOvbcwfP4YigpzkVbcBNeleXS4MmK0L1hc8rbsPzITZGM0Puz9n4tqjw+th0zeMnp+wOBQNUR//2f2zeLomT7k5uUgzdGEpktetB0y/0mFXf3R/E9pibt5ki/Jl8RAZAZ2objUxd+9Yn8UhzG0urZHLv9pFQPvQYkFMv5yS6gKERlK8XZxyWGoqlXwd6suRnlk4rs+FbcLjfoETPYruJlrisniKgV/N5nvfHJxGUv94cDj9Z3uUXG/yCw/u0DCTLmo3VyMPJHEpZFuPdbwSG6DaZ/LqeK9y/SP9Vz+3S499Hzr30bk0iqGnY0K1htM8Wo9n3+32qe1a1hGI2PgfuSi1PitQbu52vvfKF9KyUKKGrle4zzrkUfOqs4voKVWCogN/eZeGfib37xHTjQE+kOoHMfw1aPI0Ozbj4rJRXQ4dbHHxVDRmG9n4nJmTFtkxutprVehRTNv6r9ZbTW+c7FhjYxGs8/Iw49i7XfbxKU13fhuLZ8xLn5M//D+zhv2bhOXHS5TTHL/DQ0fDPjPKDeWY6hwi7d+xrL1/q0x3wlNrnKj0eUIRMaj2WVMi1vfKQ21MV7/c38Nnzjkf1jhkdx5NFXr9vL2H/R40Vhujg+pHd9jZKQ24N9Y64/WTkqLfFMk35BviIH4GdiV4vKiW8GNPHNw5SLEuqAn9G8+jd5VFDx1zeGIJC6FbAnvhmW0Cgxsn4SVYzJ6/NPG/GZ60a3in2Mq/h41Px9a9cgmL9eufpYuYc2S9+8RGa1+4auXH9y+cCBHE5cZORLme/krAX77jqnYcpniMjlHwstRFW+6ZdxukDCcKwSiurwuu3Q7+/m0+AO/+OflVdcH1x/NPkNIhhOX/LdY/B/OX7H+xlgx6q4G37xT2q5i1CIm+c3bWMDCy2X7ilFY49B8yFg+Dl70wVVl8snPt4q/aLZoQjKcuPT/xvMmlfaj9cIdDP7gw/CsDyOzixgaqg4SF5Hss9YdSVxGKz+cf6z+CCe+Qv1ntcHue6hwi7f+cPntbLCmh2tfqI1Wf/C8Vj6sZUXyPysehnvmFPJEBra/E0dmJ1Gk6jzp9i9iZFbve73/F2Lm01o/fY//Bkk+JB8SAx/HwJ4Ql5E6P5K4ZIKIG4MKruUwpJfJ+H+dEtKCxJ+KWYeA4lTLx/KOZqi4DK2fiQLyrXlThcB2MPGKSyaKuDmk4lGViPI03b4upxIkLrk9SckCOsskeJwKXo+qeFIRHOGLlm5nfzRxaWdfrOIymv9D/b2Tv8OJj1BxFCoerOVzcVlz6dOJSyYeQOONB2jvOID9WTlIzcpB4eCdqOLSap/1ezhxY1d+OP9Y/RFOfIX6z2qD3fdQ4RZv/eHy29lgTQ/XPm7j8Ghw5NAq7q35rd/D+Z+nM7ECjTfu4VCpCLXxPEa+bYESGH/4w88DuOr0vuf9r33S1IgPF9Y66fvH3QjJb+Q3YiCxDOxKcTnZr8JuWtwayYwERURxyRjam1S8qRPR0xr8viMXf3xa/I5/mpyXnZQkoGwH4jKSPfx3Xv7p3uBp8dxiGfcOCIFpWO08beHR9q2IWLKEleMyBgKRVgZXY7C4FITgsvi0/od2MSBw7dLt7I8qLm3si0Vc2vnfsE+Qk6FIZgTR+D3aMdZp8UjiwRAfbfX6zZ73Z/7Iw7CRy3DT9naRS5Z2GEfuTMMRiGTpC0qiRS4jtTecuLErX5+WTcy0eLj2h9q6XVzyaeGPrz/Qv9Zp8ZphNLeUbJsWD2ef0b/GtDjvX76gxxqZtort0PZY/w7nf57O3wstGPFioLdCe6Wis2l/QDjq/vehqdp8bUNKzcH+tKTAObHWb7WFvif2xkn+JH8SA9EZ2IXicvuCHl+YBT2RxCVfUJKWbFnQ0yejnm/ts09AqmXFaFKRjL96ZTweVnDSuhKYMfAFPVs9EjozBDgyRcz0cwFqihi7yGU06LQFPfUK/u6RwBf08AVDc24Vj8vM8nl+JonwHtMjqHl++/fxaXxBxMywgh9r9chlnUOGz22KS15+V4uKt60SDqULKEgTcKpTxUajqN1c7dKj2a7Z5V8tHmla3NY+vgo+wjuX+rS4vf81O1I6MPnzJh55TyLfH/Wxs123P8KCnoPmAotoN28uDLIH7mB4sg8ZSRKknHa0XPUGiQ+tntRunA+z4MhWXIpVaLzpxeHug9iflYfsumG0XbkXc+SSvwOqpOkLZrQFPZ5BZO/nf6drQpzZlL99Qc0A2q5sf+fSfW4YjiJjQdT2BT0sQvtD+2i7uAxdULSz+nn/ZFgX9Dia0XRlHp3O9IA4i9o//n08A1sRHdy+FVF0PqL732i/dPA0hs970HHzGg5kmNe+tiCpb9a/4CwHaUUNaLzIFySZ9ker3yifjtFvfOQf8g8x8GkZ2HXikne4dSuiVx0SxpzR37m0QsIjDfydSWMrIuP44bgCT6ZlEJdF+I6p+NAnwREiTvhWOsMuBW+NrX7qRORYtgKJR1xq7ZMFuJ0KXg2qkbciYgxlZTKeD6r4cJx/FHzr374kO0/Co34FW/5thgbqTHHJyxf3ibh8WMEfo/pWRC86ZDRZIq926VZ/hn7n/o0WueTnR7PPLnLJ89v5XzsnyYXxx+vwzg4hO6T/Qm0O/TuwFdFNL4auXUdLmK2IIkUutbrTatDomcfo7QUMXTqB2tE728VlchPGl7fbZycuefnJ5W60X7yHoR/uoudEBxy9MzsQl3xaNXirH21Loju3UeuPxtuVH9gK6Acv+k91o+Ko+Q6qEdlr7WyC6/xdDN26gyODzqAHN81HEdof2hehU85aXmMrpI+sn6n5KBn0oP/GQwxqWzlt34qIRbDPaJ/mM76J+tUrcDYVBxYPcvuiiTt9Wj66/7U2qk60zS5i1NMfeCXH8A23v2z4CgZm9K2I2npqtm1FFY1Poxw6ftqbJ/mX/EsMRGZgV4pL6rDIHUa+2R2+YYIENS0NksiQ5Z6D210WFBmjfrLvJ/6gkjd4HwO9DvIdbVBODBADxMAeYoDE5R7qTBI09oImET7Spp61qeYM7MuqQO20D51O8725RNSxV8tgoook7rv0HGRUHcWRmVnwVzv2anupXf/ONUl+Jj8TA7uLARKXJC7pxr5DBhgrxaHv9anPkdm76Blrx37Lf0CiQS7yIMdS2nD4zqL2f7uPXr6Exsb8oCln8l1k35FvyDfEADHwpTBA4nKHwuJL6ViykwYhYoAYIAaIAWKAGPgcDJC4JHFJkUtigBggBogBYoAYIAYSxgCJS4IpYTB9jqcjqpOeyokBYoAYIAaIgd3FAIlLEpckLokBYoAYIAaIAWKAGEgYAyQuCaaEwURPjrvryZH6g/qDGCAGiAFi4HMwQOKSxCWJS2KAGCAGiAFigBggBhLGAIlLgilhMH2OpyOqk57KiQFigBggBoiB3cUAiUsSl3teXKZWudHfcSDifop26TRo7a5Bi/ojuD+I32B/EB/kjy+Jgb16/ZK4jENc8v/UUnL0Pi5NH0H6Dv+/9ZcEfzhbv5S2M5aOjtlN3BwqDCui7dLDtZ1+o5vXbmGA+CUWP4bFL2X8/pi2/Rt5EuW/vXz97jlx2eRU8X9j/6N9PhyX0SOysKIiEQAyloTac2vw3j2B/CjisvTbl/BNOTU7GMtFz/0tnGtTPpldiWibXRmxtt2uHJ7+Kf3D0gdx5cUKenLDc2CXHov9dM7Xc4NnTEHT9S08+e+fQZ8zLpMvllqNLs9jzP28Dt//ruDcsQakhRkfmFCA7rkN3BwpheBPj6V8K2875TdR4w+ruQTfigelYdpltW83fmdVHnhfbuHx2jrue+/AXZcd8P9utHcnNrG6q/C93M7n8ksf2lItjMZ479pJ3V/SuUxux+TzLSx7x5H1EQwn6v4X7vplainappZw9+nv8K08hefbDmRJZt99Sj9XT/0WGNeWX96DM47/PLfnxKWqMuTuE5CbLWHtE4vLWDv5U4qnWG3Yzed9Sv+k9y3i8f0xZEYYQOzSd7PfyLZ/X9QyJkBNy0VGFv84UDvxGHcfeFCVrg/+jKWh8cpbeGdO4mCJAwV1Y/CsvMNU2/b/PZ/Sdge+J1dwQDVvHHblh/b5TvklcfkfMDlV67/MvDJUu+dw7/ki2jPNPgj18Zf0N1PSkK6xmY/DM1v4YaLez2oGVGFvtDER/cEfMB74VnBzzYvmfZ/PL6HXL7/+SybW4Ls7jbqyIuQd6MaphQ1cc4efeUuEL6xlyKnZOi9Vk/hhr4lL7tzv+lTcKxYCkb3qehVbLjHwd229gg2XhBPtCjZHFLzskOBKCgaEpUpYjSIuWZITJ5bewXtrcEdPLowVYmA++Mlw6WJ7wDbeUSztEAZnVjG/+htmr4+i8+yL7ZHLoW6M338N39P/4trUEWRbIqxMdaB50ofbK+vak8uFiVZkWNK1OiLYz3LHcPPJdQx7XsL36DIONXtw5+krePocgadztq8KR3hk5ZcNf/ktyLAMPFzsec+PoevGc/hW32J2ZhJV+03/8nQjcrPsPYnsEOFmV368/onWfuuFwlg2jsxt4po7N6h/jHPCpTO5EiOL7/H90ULNX4ztQ53nNeavdSOFMcSbbtQd6Rhv+Xb5I9Vr/G6X/1OnG3ZEOv5b9duND0zMxaHJJ7jp6UOuYl4bTHDixJMn6C0yf3Pwm8V0UxCDTK3HySdcdKYH/W60O1L5Rjo/huXXPzMyNdyHCS8fX17h++k+5PgjH4a4nBruxbda+ktcmzqMLMv4wpJK0T69hLmf9Mjr5Eg9Uv3XeMTI2O2RQHQ2Wn7N7qQD6L7yM7xPf8Ps9yPoOPsS3rOHAn6wG3+ijS+xjH/BPiyFe2ETZ5ulQP0stR7uG7/gweomlp69xszVMZRY7i9aZIn75+kfWFz5BdPHnUiLcfxkOcdx48UjdPgfRrgtQrUHD1Yuo8JfRjzlG23j07bOq1thXweKNn7H4r9o9jGWjJYbwfdHfq+wvpYUjY+Y+OSRvSj+N3wQ7Zg3vIIHZ7rRdXcdpxrMvud57Po/mv+0/Db3V8Ou8NdvOjpvb8FzJDXAY1rDGZwaqIZoXIM27Y/uX12/TLaYbQ47PnEd8fUbLlgAACAASURBVLWKyz8HZXiKBJSmi5jqUrHRJCLJInJsxWVqF6ZXt7C0cBoFlnxGx0c68os2Od2IXOSi+sxzWMUlYzKqp15j8f4F1JU6UNhwGtOP324Tlw/mptFU4UBBzTFcWPkDniOZGkyMiXCMr2LRewkN5Q7kVfbhzKMNXOoNFkgsgv3a4PB8Eb0HquGe+x23TreiqGcOvqVzKOTiiEmomnqDBzfGUVNegrwDPTj96B2mO8zICr94FlcWMNx8APmOJhydewfvhRaofj9JKfrTTU6/F6Hi0q78eP1j9Euk9hvp/MiyRvH9i8c4EiEqESldrbuCe0/vw5XGIFVM4faqD+1ZpliIN91qY7jv8ZZvlz9cndbf7PJ/6nSrLeG+/xv12/GlT62+h+/xE5weqAwae6w28+u5euoNvGfqAjcL/lvBsRU8ujeGHIsoCcqnTd1GLz8cv8bN2Tt3Xh9fDo7g/Mp7XOzO9o8v+ms53rkLaD5QgoK6cVz6+ffA9c+vXx45WbzvQX2ZMT79hsmWND2/moGc/ELkdN6Cb+UmGvl3/slM1W5+tvmZgMKxp1ha+B6u8lIUN03Bs/x2m7iMNP7Yji/8phhl/AvysaAio/4CZtZeYKjMvL6LTqxi8c5pHCjMR7bDBfcPr3FjuDQwPpeeWsPDH06h2lGE/Kp+nHm0jvOd5kNCtPGTsWK4fZs436n7k9vjGNcfPrh44GzEU77RPu6nSOIy6vht4z87+4Ij77nIqpnEzNqvmDi0z+8/G778D0de4/5YexIXg/iM7h/GKjH06A88eh7yuXTEFGcsFe0//I7vmlUUn3iGuYlKzTbDd9H6n58T1X8x3F+NesJfv3y8eAvvle6gB5ZAHhs+7K8/Epe2kct/WsXA6l+xQMZfbglVFpFoJy51SLKQopoRUqMDd3IsOP40RFzqg8dkq+y/mATUnH+3TVxe6s0IAF188jkWLrT4zy9An3cT51rMdzLTnWcx0VsViDwa9kkp2+3XxOUvV3GAMe1dxumOZGi//XxF+83Iaz2WnnqxbXBfutoFye9PseE6FpenUGzxL88vt93ZJi6t5RrfreUbg+vH+scokx/Dtd+annX0CR7fGcH+ELuNcyKl86nNhstvcG/Sjf67G7g+ZEZ9ed540436Ix3jLd8uf6R6jd/t8n/qdMOOSMd/q/5ofDE1Hdn5pShr8+Dm85c4Xm1er1a7hSw3Lj1dw1C5GSlgmW5ceraG0QN6nobLW7g16giMBzx/LOWH49cQl6Hjy2JgfNHF5ZV+XWzyuqom3+LBd/X+8acQ/Q83YVyfPF0TP/53xo22RXrnks/sRMvPWBaOzG3hYrf+MMsfNhsuv/+o8cewJWh84eIohvGPVU3j3tomll+8xeXhqsCDs+aPc28xf6ElMP4Z9fAjYw64fesYrzPFaO7wCh55WgP9x8VltPGTj/ePrh6GoolJfrPfwBmX6vd//OXrdkYWl0Z7wo3fdvePWNpvlM8kB/rubuDO2cbAw5c9Hzqfl/v0YAsvqzKIz+j+4e8sp+T4H3iMBx9+zEgO9A+TWvHd6gLa0xjEumvw3RtDhuUeURWl/4228WM4/1nTje9WPo3f+DHc9ct/F7KPYHL5PXwL8xg/1ofyTF1L8DQ7/9v7l8SlrbjcdJrT5EwV0VUkBL1XF4u4tHb0x37fLi4rMfokePDhg020BT3ZR59g+WqX/8l/e/6d2BZxcPAPuLystJrTmH74X/ie+Z/u1raCpu2s9vLzWVolGlqqA9Nehj2RLq5o5fMny3j8Y9Rtd2QsD70PNnGpNyswqFjz2KZn9sPzdBOPF6ZQHOZlahZnutWWcN/jLd8uf7g6rb/Z5f/U6VZbwn3/3PUbNvFIQa1nA3fGg6MfPJ0lVWLQ+w6zp2oD4oWxFNRffI2Hlzuxz39DCycu7cqPxK8hLq0LBoPHl+0LCq3TYuGuT2v+gF0RFvTY5WesFEcXN3HaaYozPt6ETosb46Xmx5DxJ+r4EklcWsY/rUweGV65jtoU88ZttE09eB6zzzcwd/8Bznx3Bu11hZoQ1PJp49cWltYskTEuUv3jNz/HbvwUKi/g/tMZ1EgMLHME19buotE/7a77L77ydTsTLC79/ovFPr1+GcXHV7AwPwmH9bWRMOO/la9w/G7nM7p/eP3RPuzAedz3nUYeF/dJ3biwdh9NltceovW/tdyPuf8Z+SNdv4F0ORvl7eMYu/EUvqf/i/4y4+GD3z8jt9/++iNxuSNxaXSI9UjiMiRyaQwOUiPGf/oNnqFGFPif7Bqm/htVXFr9av0e7uJiNuWHg986GIcbXKyDj7X+aN9Z3knMvFhAu+XdJuv5dumi4zRuPeXvvP6A2hTzRmiUEW+6UU6kY7zl2+WPVK/xu13+T51u2BHp+LnqZ4KKfftTIVums/WbnyvohsbEQrTPvMb9a73ItL7PyBox8fQVRg6YTFnFZczlR+Db7voJl7795h38cBzu+oscudz+8GjNz8Xl4KOdiUsrA7bjy47EZeTV7mpmNeq7T2J42oe55xu40leg9a8+fr3F6faQ6JglMmYdz6y2G9+ZeAjjK28xViMiteshlmbcgQeNRJTP64k2LW7YEXb8tvFfLPbx8tXKacyuPkZ3kRmx1+2y4yOWh5/I/uf22U2L5wytYHntD/hW1+Fb3cDSi3cYrzeDVZr9EfqfpxmfsP6zuf8Zee3uP4HzmILSb1fx6HqvFv2187+eHvn6NdaMfKXvXDKMHlaxVK4PvowxNDtVvK43p6/5gh5r5NLoCOuRpUh4GmVBDz9XkJOhhIlKWcux+749csnD9ua0En8HZWfT4vq00rkW/UmF15/R4sGku3rbtHg4++0ilyxzFN+/9KI58KQsaNNi1gUHdoOj4ZOwF5dN+XpY/+P9Y9TNj+Hab6TzqaqlH45qi3CM36zHaOlMKETv3Q3cHK5H07XfcHeqMRB54mXEm27YEWnaNd7y7fJ/7vp3u32Gf8LxxZQjmH7xFAP+BTt65HI96L0tJmSgzrOGh7NjKLBEbTR2mBMTq9sXPBjT4rGUz8uJxK8hHkOnxc3Xbuxu3tGntQ3fsIMXMR9mKyL7aTm9/gud+jQlHx9rL2xEjVwadWr+sxtfbMSRURbj747mZQQiksbv/CiIEgTLwwP39fKNfm0M0Mev9/iuyRRNSnoRCjL1dwp5frvxkzNT53mHuxOH0HjlD1zuM2dXElE+t+HTiUt+f4vefpbciPHHv8HTnbftnhUrH9bIe/DDT/T67abF+cxB68wmLrpLkZ1boH0apl/h9skDAdEYrf+tnHzM/c/IH/H6FarRffUSGi3v+Gv1PJxAjvYahV37o1+/jO1H5+wWLvYYr6UIODj9Lmj80vjJ2YMLenjDSqoU/N0voztTQHm+hB9HVFy37FMYk7iURHiPqZh1CMjjWxPtE7DPMmCwlA5M/ryJR96TUfeoNGCIdNwuLkMX9JzBheXt71x673osC3rew9NlWdAz8QyP/At68qsG8N3jDVzqyQnAr3V+BPttxaXoxMTP67h6ogWF+Q6Ut3lw4fGbmCOX/B2pfZn6giZtQY9vCuXa1hfZSJYZmE352xf07Mw/Rj9E6z/GijDg24TniLlIycin+c4mPaPHh4UlD0plBiF3FNeeP8ew//04nj/edM2G1G6cj7CgLN7y7fJ/7vp3u32afyJdXywDLTfW8eDGGKqKHXA0e3Dz2QsMV+higzEVJWMrWFiegavYXPiXkZHif+0lGfvzHcgvMj9dM+Y7l8ymfM22KPwa4tJYEJHPF/T8yBf06ALGSI988xZRMvFcW9BTZ1nQc7bZXICi2VB4CrMvnmDwYKm+oCc9yR/Zi56fLwipOPMKi3OnULxPglo0hHPL72IXl3bjS6ziUkxGalpyYJEHb5PuWxUNlzdw7+owKorzkVVYi96Zt/BONvh3j9AXlCzcv4B6vlVMRRcmFn7HpV5zfLYTl7wetXkWi14fLv38I7pzzCi2sWAm3vIjiUvb8dvGf3b28dXiB8+/gm92DA7tvqBfA+mpxrSuHR92Dz/2/jf6MtyRSc04vfoU/YWmz9W2O1iaO6b9IxR+/Ubv//jufzpjke9P/J3k9h/WcffaqLZgLK+8E8cfbODed/X+8SN6+3n/2F2/eUMreOS7hsZyBwoPncbVp69wstYMZmk2qocxtfYrTrc5kKn1YyaSLDMw4Xwb+tuu3OeSiQL6GmX8OqRg063gdoUQ2AqDNyAmcckYyspkPB9U8eE4/yj41rqJbJIL44/X4Z0d2raVTqiTov2tiUtPW7Dw07Yieob51Xe4ffMEjpzb/s7l9Ei/thXIwtNXuDbVjRxLx/GtBFqmFnF7xdgqKNxWROHttxOXvC376yfhWXyDhVW+zcYImiee7kBc6u98GFsRGcflly8x7I8225Wvb0X08f7hbWBR+o8VfYvZtYdotvS3tQ+jpbP93Zj+5TW+bUzx32wkFJ/4BUsPT6NAZIg33bCDJTdhfHk7f/GWb5f/c9e/2+0L+CcKX8L+Bri//wneZ3/At7yE8SOlgQiYId6M68I4Li+cjvgQa50W5/VHK5+nR+XX+CcNfKuzB6/Bx5fvz2/fiiiSuNTKN7Yi0jaB/wnnLFsRBfzDMlH73TIePNvUtiWzznwEtkKJkJ9ltGDct4HlF5tYfHQNw55XMYtLXn+08SWW8Y+XUTC0gsXnyziSZ4oMo21CViuOzT7D/PNNLK2+xuzMucA+pvwcrX0XlnHv6R/wrfyCC+MtSLcELmIRlyyZv+u3hWX/u39G3QkrP8JqcX3adHvk3Bi/Y/FftPYb064G98YxVj6M68eWzyj+t/oy9Dsrn8K9p9dQZekvrc1r9+D0z+ZF6387//H6ovGp9a/N/UnIbIT76o+4+/PvePTLGq5OH0Wh5Z3QaP7Xyre5fplcCNfkAu7wrcae/IgzA9VItixo0spgEgq6Z3Fr5Q88frmF5Zc/oTd/+7XCz4302ZXiMpKxu+13PqXDtw2Ym6iO6ODdZvPXYE/h8ad4dKNv2wVjtN0u3TiPjpEHDvLN5/NNNH6Nm7N1tfdu7CsmyEjJzIAqMZSf+RUPztTSGBrlRr0b+5Bs+rgxINr1u5d8SuJyhxc0E5ORxsPE2YUodp7DtacvMFoVfhuSvQTKl9IWfcHAe0x3mJvQWm23S7eeS98/bvAkv306v9nxa4hLa+Rnt/WHdWo2M78eQw/e41KP+d7hbrOX7Pl0PH9tvrW7fveSP0hc7lRc7h/EFR4mfvEeD5f0KTFjc/G9BAa1hQZUYuDLY+DLEJcHcXxFn5p9/Pw1Zq4MoTBk4ROx9+WxR31GfWZlgMTlDsWl1Xn0nS4mYoAYIAaIAWKAGCAGghkgcUnikt51IgaIAWKAGCAGiAFiIGEMkLgkmBIGEz25BT+5kT/IH8QAMUAMEANfIwMkLklckrgkBogBYoAYIAaIAWIgYQyQuCSYEgbT1/h0Rm2mqAQxQAwQA8QAMRDMAIlLEpckLokBYoAYIAaIAWKAGEgYAyQuCaaEwURPbsFPbuQP8gcxQAwQA8TA18gAiUsSlyQuiQFigBggBogBYoAYSBgDJC4JpoTB9DU+nVGbKSpBDBADxAAxQAwEM0DiksRl3OKy9NuX8E054y6HLs7gi5P8Qf4gBogBYoAY+BIZIHFJ4jJuUUjikga/L3HwI5uJW2KAGCAGPg0Du05cMibguz4V94qFgOiprlex5RIDfzNVwNkOBesjKv4ZUfCsVcJBmZnpkoAhp4w3Iyr+HFQwXyMgk5nptfUKNlwSTrQr2BxR8LJDgitJT+f1T3Sr8FaJmO1RsDWsYMUpokAw8zNZwFiTjDfDKrYGFfjqReT4y2epElbdMjxNCjYHZBwukvDrsIrFCgGCcY6NfRx2luTEiaV38N4aRJbFdrsLwfjfwlPDfZjwvobv6St8P92HHMm0n4tB7/kxdN14Dt/qW8zOTKJqv5nOkkrRPr2EuZ/W4fvfFUyO1CPVYgNLO4TBmVXMr/6G2euj6Dz7giKX9JASuP7sGKX0TzOYk1/Jr8QAMbBbGPgixeWBWgV/dUloSBNQmC7i3GEVv1TrYpQxhpp6Fb8fltCcLqA0W8TtAQXzJaZ44uLyz0EZniIBpekiprpUbDSJSGIMhrhc75LQnymgLFfC0pCK+RKz/CangvV2CW2ZAkqyRMwOKHjo8KdzcTmq4FSWgLNdKtYOiThQLmPLLaFCK9/ePg4HS+3C9OoWlhZOo8Ai7OzAMcSld+48miocKDg4gvMr73GxOztw8+ficnFlAcPNB5DvaMLRuXfwXmiBqtknoWRiDYv3Pagvc6Cg5hgurPyGyZY0LT9jMqqnXmPx/gXUlTpQ2HAa04/fkrgkcRngy45RSqcbIDFADBADe5uBL1Jcupwq3rtEyGFEFxeHk/0KbuaaYrK4SsHfTWbkk4vLf1rN/GKBjL/cEqos4nK53IycOhsVrDeYf4deFDU8Etqgl69FLodlNDIGXg8XpcZvDf7y7ewzypdSspCiRq7XOM96NMTlpd6MwM2++ORzLF5oCfzNxeXS1S5Ifv+JDdexuDyFYs2+QvQ/3MRkqxw43zG+FhCPjBXD7TPTub9rzr8LpFttoe97e/Cg/qX+JQaIAWKAGAjHwBcpLpNzJLwcVfGmW8btBgnDuYIWdeQN5GLnolvFP8dU/D1qfj60igExxUXfptMUm0wV0VWkT50bkcsHxaY4DZ2Wz8iRMN/Lp9T95R8zp+0NIRlOXPLfYrEvXEfF+pshLs+1KQFxmH30CZavdkH0i8nQdyRZWiUaWqqRptlXidEn6xivM9tvzc/Y9vTQ8mK1lc6jQYkYIAaIAWKAGNh7DHyR4pKDmJQsoLNMgsep4PWoiicV/mlpv7icdQgoTrV8kk2xFCourWDbiUsmirg5pOJRlYjyNL38LqcSeCc0VnEZzT6rPTv9/jHi0lpHOPFI4nLvXfjWPqfv1L/EADFADBADiWRgF4pLhtHDKpbKdTHI36Fsdqp4XW9ODwuCEIjCcWfwae8P7SKSLdPOdwpNMZmUJKAsUeIyWcLKcRkD/gVE3D5X487EJZ8Wj2af0cGCnAzFshDH+D3a0RCXodPiCyHT4pG2DmLMblrcQdPi9H5lICoejUVKo5sVMUAMEANfJwO7TlxyEEv4O5L9MrozBZTnS/hxRMV1/zuUXMx1tah42yrhULqAgjQBpzpVbDSK2mpsY0HPVo+EzgwBjkwRM/0qlv1ilZcfV+RSEDEzrODHWj1yWeeQ4XPvRFzqC3qi2cdtZCkdmPx5E4+8J5Ef5t3SSBesIS69c9Pagp58vqDnR76gJysgCKJNYzMmomTiubagp86yoOdsc6QFPWdwYZneuYzUH/T71zmwUr9TvxMDxMDXzMCuFJdMFNDXKOPXIQWbbgW3K4SgrXDEfSIuH1bwx6i+FdGLDhlNlsgk3ypo2KXgrbFVUJ2IHMtWQvGISw5Ldp6ER/0KtvzbIA3UxS4ueX47+7RzklwYf7wO7+wQsj9CXJ4b6sb4g9dY4FsRnd++FVGkyKVet38rop/5VkQ/4VzYrYieYX71HW7fPIEj52gTde43+pAPiAFigBggBoiB/2BXikvqmI+/OI3IpXW1N/nz4/1JviPfEQPEADFADBADO2OAxOUeizgZ4tK6Wpwuip1dFOQv8hcxQAwQA8QAMfDxDJC4JHFJ07l7jAEaED9+QCTfke+IAWKAGIifARKXJCxIXBIDxAAxQAwQA8QAMZAwBkhcEkwJg4me9uJ/2iMfkg+JAWKAGCAGvnQGSFySuCRxSQwQA8QAMUAMEAPEQMIYIHFJMCUMpi/9SYvsp2gBMUAMEAPEADEQPwMkLklckrgkBogBYoAYIAaIAWIgYQyQuCSYEgYTPe3F/7RHPiQfEgPEADFADHzpDJC4JHFJ4pIYIAaIAWKAGCAGiIGEMUDikmBKGExf+pMW2U/RAmKAGCAGiAFiIH4Gvtm3b19CxEVqampCyqFOjb9TyYfkQ2KAGCAGiAFigBj4XAx8U11djUQITBKXHw9xbb2CTaf4xYrz0m9fwjflDNjPmIRM12XcWt3C8ooHpYwF0jjoLLUaXZ7HmPt5Hb7/XcG5Yw1I85/DmIKm61t48t8/gz5nXMFlaOUIBeie28DNkVIIIXV8rguK6v3464B8R74jBogBYmBvMKBFLhMhMElcfjwQe0lcMpYEx1EfvE9XcPz0PcyHiEvG0tB45S28MydxsMSBgroxeFbeYaptvyZAGROgpuUiI4t/HKideIy7DzyoSt8uLlPa7sD35AoOqNvTaID6eB7Jd+Q7YoAYIAaIgXgY0N655JHL2tpaCIIQFGHaScGJEpdcXEx0q/BWSZjpVbE1omDFJaFIMAUEkwWMNcl4M6xia1CBr15EjiVyxVQBZzsUrI+o+GdEwbNWCQdlS/4o6UVVCt7WC2CM4WiHihc1+veBdhXXcvQymCRgyKng9ZCCTbeC+9UCMiz1c7G44ZJwol3B5oiClx0SXEnW+kVMdyj4Y0TFi3YRow3bI5csyYkTS+/gvTWILEvZdn3CWC567m9hargPE97X8D19he+n+5AjmfXzSKP3/Bi6bjyHb/UtZmcmUbXfTGdJpWifXsLcT3pkcXKkHqkWG1jaIQzOrGJ+9TfMXh9F59kXgcglY4XoungVjXkqWJUH3lBxKThx4skT9BaZ9Tkm1uCbbgpij4m5ODT5BDc9fchVzHON9jO1HiefcFGaHpTPSKcjDYzEADFADBADxMDnYSCwoIeLy3g6IdHicqNLQn+mgLIcCfODKpbKdOHLRV+TU8F6u4S2TAElWSJmBxQ8dJjC+ECtgr+6JDSkCShMF3HusIpfqmNLl4pk/N0qQmICLnQqeNEsQmQCJvsVjCUzcPF7sE7Bnz0yOjMElOWK8A2quFdsls/F5Z+DMjxFAkrTRUx1qdhoEpHEeH5uv4q/eiR0ZAgoz5fw0K1umxZnqV2YXt3C0sJpFFiEnV0fGeLSO3ceTRUOFBwcwfmV97jYnR3oXy4uF1cWMNx8APmOJhydewfvhRaomn0SSibWsHjfg/oyBwpqjuHCym+YbEnT8jMmo3rqNRbvX0BdqQOFDacx/fitRVwKEPwPAuHEZaj9jImonnoD75m6gH38HC3vy/fwPX6C0wOVmu+MvDxPwbEVPLo3hhzLQ4eRTsfPM5iQ38nvxAAxQAwQA5yBXSsul8tNsVZVq+DPpsjvJNbwSGGDme5yqnjvEiFHEGXR0lm6hFc9EvIFEXMtEq63S8hjImaHZLRo4kvA6V4uJs1oWlUdjzya9nJx+U+rWb9YIOMvt4Qqf/6zfWZ+LjZbXdsjl7xzpJQspKhmubFctIa4vNSbERBrxSefY/FCS+BvLi6XrnZB8vtHbLiOxeUpFGv2FaL/4SYmW+XA+Y7xNYt4LIbbZ6ZzsV1z/l0g3WpjLOJSyHLj0tM1DJVLgfp4GUxNR3Z+KcraPLj5/CWOVyuBdJbpxqVnaxg9oP/WcHkLt0YdgXSrDfSdBjpigBggBogBYuDfZeAbI2JpHD+2AxIduXxgEW+FlQo+aNFEXdBl8GhmL59yVvH3qIq/j6nYcpniMjlHwstRFW+6ZdxukDCcKwRFvqKlM1mCb0jGoVQJ92tFHG+X4UyWsNIrocgvDi+6FdzIM8VlqH2h71AyVURXkYDMCPlDz//YPuD5DHF5rs0UY9lHn2D5ahdEv5jctgAnrRINLdXaohrGKjH6ZB3jdWb7rPnDpYeWZ9hvJy5ZUiUGve8we6pWi5oa+axHvjio1rOBO+OVmnhkLAX1F1/j4eVO7PO3h8TlvztoWPuHvpPviQFigBggBkIZ2LWRy0jikokibg6peFQlojxNQHGqgC6nEiQueSOTkgV0lknw8HcjR1U8qQiOAEZK55G4K4MyBopl3CvRo4pDBRLetvCpcn1afKfi0up0Xn5o/s8tLoPt+3fEJRML0T7zGvev9SJTNIUsE1Ts258K2TLdrb+T6fKLy0ZMPH2FkQNmHhKXNLBZGabvxAMxQAwQA5+XgV0rLkOnxY3IJONRxOMyBvwLdPi0sqsxWFzyhUlGlI4DVlyl4EO7iGR/pCtaOi/v+BEFN5wyLmczLe/VBllb2MPL4uIwlmnxSFsL8fyT/bFNiwtyMhTLQpxYLhYjchk6Lb4QMi1u3TrIWi5fkBN9WtwR97Q4EzJQ51nDw9kxFIQs1mHKEUy/eIoB/4IfPXK5jrkJI3LpxMTq9q2KaFr88w4kVoboO/UFMUAMEANfNwO7Vlyu+xf0lPIp8KOWBT2CiJlhBT/W6pHLOocMn9sUl1wcdrWoeNsq4VC6gII0Aac6VWw0itpeiHbp/IJodir41S1jNJlBLpLxckDBfIkeKeP5jQU9fEGOsaDnbpEZGY0WieT5Qxf0+MIt6EnpwOTPm3jkPYl8vyiO5WI1xKV3blpb0JPPF/T8yBf0ZAXeSYw0jc3L54tlSiaeawt66iwLes42R1rQcwYXls13LrkYTMkuRE5+IXLab2J+5SYa+ff8LP+CIRUlYytYWJ6Bq9jYcigXGRkp2gMBYxloubGOBzfGUFXsgKPZg5vPXmC4Qn8nk7Fk7M93IL/I/HTN0DuXsbBB53zdgz31P/U/MUAM/FsMaO9c8vctd907l1UibvboWxH95JJQbJkmzc6T8Khf0bYp4tsMDdSZ4pI7Ttwn4vJhBX+M6lsRveiQ0ZRsTqPapfPtiD6MyGjm0+CZEt4cV+DJNPNrWxG5/FsRHVXwIMxWRJEil9w+/g6msRXRqw4JY87tC3pYkgvjj9fhnR1C9keIy3ND3Rh/8BoLfCui89u3IooUudTsM7Yi0jY5/wnnwm5F9Azzq+9w++YJHDlnbqLOI58D89sji8sv76BB4q8V6FslhW6SvrxwOiCihf0NcH//E7zPLfuksQAAAeVJREFU/oBveQnjR0qhRPEBTYvTgPlvDZhUD7FGDBADxIA9A4HIZbzOSvSCnvuWBT3x2vY15TfEm3W199fUfmqr/UVPPiIfEQPEADFADHxKBnatuLQu6PmUDthrZRvi0rpafK+1kdpDgyIxQAwQA8QAMbB7GSBx+Z/d2zkfc+GQuNxb/fkxDFAeYoAYIAaIAWLgczKw68Tl53QG1U0XIzFADBADxAAxQAwQA/ExQOJyj0Uu6YKI74Ig/5H/iAFigBggBoiB+BggcUniMrBFEV1M8V1M5D/yHzFADBADxAAxYPnf4uQMuiCIAWKAGCAGiAFigBggBuJlIGGRy3gNofwEMzFADBADxAAxQAwQA18+AyQuaVqcpsWJAWKAGCAGiAFigBhIGAMkLgmmhMFET5tf/tMm9SH1ITFADBADxEC8DJC4JHFJ4pIYIAaIAWKAGCAGiIGEMUDikmBKGEzxPulQfnpaJgaIAWKAGCAGvnwGSFySuCRxSQwQA8QAMUAMEAPEQMIYIHFJMCUMJnra/PKfNqkPqQ+JAWKAGCAG4mWAxCWJSxKXxAAxQAwQA8QAMUAMJIwBEpcEU8JgivdJh/LT0zIxQAwQA8QAMfDlM0DiksQliUtigBggBogBYoAYIAYSxsD/B+wgfjTSLKt1AAAAAElFTkSuQmCC;" vertex="1" parent="1">
                    <mxGeometry x="50" y="320" width="478.83" height="104" as="geometry"/>
                </mxCell>
                <mxCell id="4" value="application-local.yml" style="text;html=1;strokeColor=none;fillColor=none;align=center;verticalAlign=middle;whiteSpace=wrap;rounded=0;fontFamily=Comic Sans MS;fontStyle=1;fontSize=15;" vertex="1" parent="1">
                    <mxGeometry x="50" y="130" width="160" height="30" as="geometry"/>
                </mxCell>
                <mxCell id="5" value="application-prod.yml" style="text;html=1;strokeColor=none;fillColor=none;align=center;verticalAlign=middle;whiteSpace=wrap;rounded=0;fontFamily=Comic Sans MS;fontStyle=1;fontSize=15;" vertex="1" parent="1">
                    <mxGeometry x="50" y="290" width="160" height="30" as="geometry"/>
                </mxCell>
            </root>
        </mxGraphModel>
    </diagram>
</mxfile>